<svg width="16" height="16" viewBox="0 0 16 16" fill="none" xmlns="http://www.w3.org/2000/svg">
<path d="M6.66675 3.36486C6.7089 3.10099 6.77182 2.86952 6.85853 2.66683C7.3126 1.60552 8.33341 1.3335 10.6139 1.3335C14.0001 1.3335 14.6667 2.66683 14.6667 5.39623C14.6667 7.3335 14.5181 8.8005 13.3334 9.17392C13.1334 9.23698 12.9038 9.28795 12.6404 9.3335" stroke="white" stroke-opacity="0.4" stroke-width="1.5" stroke-linecap="round" stroke-linejoin="round"/>
<path d="M6.00016 14.6668C9.3335 14.6668 10.6668 13.6668 10.6668 10.0002C10.6668 6.3335 9.3335 5.3335 6.00016 5.3335C2.66683 5.3335 1.3335 6.11127 1.3335 10.0002C1.3335 13.8891 2.66683 14.6668 6.00016 14.6668Z" stroke="white" stroke-opacity="0.4" stroke-width="1.5" stroke-linecap="round" stroke-linejoin="round"/>
<path d="M4.66667 6C4.66667 6 5.06971 7.59695 4.33333 8.33333C3.59695 9.06971 2 8.66667 2 8.66667" stroke="white" stroke-opacity="0.4" stroke-width="1.5" stroke-linecap="round" stroke-linejoin="round"/>
</svg>
