<svg width="488" height="415" viewBox="0 0 488 415" fill="none" xmlns="http://www.w3.org/2000/svg">
<line x1="-4.37114e-08" y1="273.5" x2="488" y2="273.5" stroke="#32354C"/>
<line x1="-4.37114e-08" y1="211.5" x2="488" y2="211.5" stroke="#32354C"/>
<line x1="-4.37114e-08" y1="149.5" x2="488" y2="149.5" stroke="#32354C"/>
<line x1="-4.37114e-08" y1="87.5" x2="488" y2="87.5" stroke="#32354C"/>
<g opacity="0.3" filter="url(#filter0_f_1316_9602)">
<path d="M65 278L158.348 225.333L252.848 286L349.652 94L443 235.333" stroke="#537BE8" stroke-width="4"/>
</g>
<path d="M55 266L148.348 213.333L242.848 274L338.876 83.5404C339.222 82.8544 340.18 82.7984 340.603 83.4394L433 223.333" stroke="#537BE8" stroke-width="4"/>
<circle cx="148" cy="215" r="6" fill="#262836" stroke="#537BE8" stroke-width="4"/>
<circle cx="55" cy="266" r="6" fill="#262836" stroke="#537BE8" stroke-width="4"/>
<circle cx="242" cy="272" r="6" fill="#262836" stroke="#537BE8" stroke-width="4"/>
<circle cx="340" cy="88" r="6" fill="white" stroke="#537BE8" stroke-width="4"/>
<circle cx="433" cy="223" r="6" fill="#262836" stroke="#537BE8" stroke-width="4"/>
<rect y="365" width="152" height="50" rx="4" fill="white" fill-opacity="0.02"/>
<rect x="0.5" y="365.5" width="151" height="49" rx="3.5" stroke="white" stroke-opacity="0.05"/>
<path d="M19.5252 385V376.273H22.636C23.315 376.273 23.8775 376.396 24.3235 376.643C24.7695 376.891 25.1033 377.229 25.3249 377.658C25.5465 378.084 25.6573 378.564 25.6573 379.098C25.6573 379.635 25.5451 380.118 25.3207 380.547C25.0991 380.973 24.7638 381.311 24.315 381.561C23.869 381.808 23.3079 381.932 22.6317 381.932H20.4925V380.815H22.5124C22.9414 380.815 23.2894 380.741 23.5565 380.594C23.8235 380.443 24.0195 380.239 24.1445 379.98C24.2695 379.722 24.332 379.428 24.332 379.098C24.332 378.768 24.2695 378.476 24.1445 378.22C24.0195 377.964 23.8221 377.764 23.5522 377.619C23.2852 377.474 22.9329 377.402 22.4954 377.402H20.842V385H19.5252ZM29.7738 385.132C29.1602 385.132 28.6246 384.991 28.1673 384.71C27.7099 384.429 27.3548 384.036 27.1019 383.53C26.8491 383.024 26.7227 382.433 26.7227 381.757C26.7227 381.078 26.8491 380.484 27.1019 379.976C27.3548 379.467 27.7099 379.072 28.1673 378.791C28.6246 378.51 29.1602 378.369 29.7738 378.369C30.3874 378.369 30.9229 378.51 31.3803 378.791C31.8377 379.072 32.1928 379.467 32.4457 379.976C32.6985 380.484 32.8249 381.078 32.8249 381.757C32.8249 382.433 32.6985 383.024 32.4457 383.53C32.1928 384.036 31.8377 384.429 31.3803 384.71C30.9229 384.991 30.3874 385.132 29.7738 385.132ZM29.7781 384.062C30.1758 384.062 30.5053 383.957 30.7667 383.747C31.0281 383.537 31.2212 383.257 31.3462 382.908C31.4741 382.558 31.538 382.173 31.538 381.753C31.538 381.335 31.4741 380.952 31.3462 380.602C31.2212 380.25 31.0281 379.967 30.7667 379.754C30.5053 379.541 30.1758 379.435 29.7781 379.435C29.3775 379.435 29.0451 379.541 28.7809 379.754C28.5195 379.967 28.3249 380.25 28.1971 380.602C28.0721 380.952 28.0096 381.335 28.0096 381.753C28.0096 382.173 28.0721 382.558 28.1971 382.908C28.3249 383.257 28.5195 383.537 28.7809 383.747C29.0451 383.957 29.3775 384.062 29.7781 384.062ZM34.2472 385V378.455H35.4787V379.494H35.5469C35.6662 379.142 35.8764 378.865 36.1776 378.663C36.4815 378.459 36.8253 378.357 37.2088 378.357C37.2884 378.357 37.3821 378.359 37.4901 378.365C37.6009 378.371 37.6875 378.378 37.75 378.386V379.605C37.6989 379.591 37.608 379.575 37.4773 379.558C37.3466 379.538 37.2159 379.528 37.0852 379.528C36.7841 379.528 36.5156 379.592 36.2798 379.72C36.0469 379.845 35.8622 380.02 35.7259 380.244C35.5895 380.466 35.5213 380.719 35.5213 381.003V385H34.2472ZM42.2947 378.455V379.477H38.7195V378.455H42.2947ZM39.6783 376.886H40.9524V383.078C40.9524 383.325 40.9893 383.511 41.0632 383.636C41.1371 383.759 41.2322 383.842 41.3487 383.888C41.468 383.93 41.5973 383.952 41.7365 383.952C41.8388 383.952 41.9283 383.945 42.005 383.93C42.0817 383.916 42.1413 383.905 42.1839 383.896L42.4141 384.949C42.3402 384.977 42.2351 385.006 42.0987 385.034C41.9624 385.065 41.7919 385.082 41.5874 385.085C41.2521 385.091 40.9396 385.031 40.6499 384.906C40.3601 384.781 40.1257 384.588 39.9467 384.327C39.7678 384.065 39.6783 383.737 39.6783 383.342V376.886ZM46.8192 378.455V379.477H43.1204V378.455H46.8192ZM44.1346 385V377.696C44.1346 377.287 44.2241 376.947 44.4031 376.678C44.582 376.405 44.8192 376.202 45.1147 376.068C45.4102 375.932 45.7312 375.864 46.0778 375.864C46.3335 375.864 46.5522 375.885 46.734 375.928C46.9158 375.967 47.0508 376.004 47.1388 376.038L46.8406 377.07C46.7809 377.053 46.7042 377.033 46.6104 377.01C46.5167 376.984 46.4031 376.972 46.2695 376.972C45.9599 376.972 45.7383 377.048 45.6048 377.202C45.4741 377.355 45.4087 377.577 45.4087 377.866V385H44.1346ZM50.6332 385.132C50.0195 385.132 49.484 384.991 49.0266 384.71C48.5692 384.429 48.2141 384.036 47.9613 383.53C47.7085 383.024 47.582 382.433 47.582 381.757C47.582 381.078 47.7085 380.484 47.9613 379.976C48.2141 379.467 48.5692 379.072 49.0266 378.791C49.484 378.51 50.0195 378.369 50.6332 378.369C51.2468 378.369 51.7823 378.51 52.2397 378.791C52.6971 379.072 53.0522 379.467 53.305 379.976C53.5579 380.484 53.6843 381.078 53.6843 381.757C53.6843 382.433 53.5579 383.024 53.305 383.53C53.0522 384.036 52.6971 384.429 52.2397 384.71C51.7823 384.991 51.2468 385.132 50.6332 385.132ZM50.6374 384.062C51.0352 384.062 51.3647 383.957 51.6261 383.747C51.8874 383.537 52.0806 383.257 52.2056 382.908C52.3335 382.558 52.3974 382.173 52.3974 381.753C52.3974 381.335 52.3335 380.952 52.2056 380.602C52.0806 380.25 51.8874 379.967 51.6261 379.754C51.3647 379.541 51.0352 379.435 50.6374 379.435C50.2369 379.435 49.9045 379.541 49.6403 379.754C49.3789 379.967 49.1843 380.25 49.0565 380.602C48.9315 380.952 48.869 381.335 48.869 381.753C48.869 382.173 48.9315 382.558 49.0565 382.908C49.1843 383.257 49.3789 383.537 49.6403 383.747C49.9045 383.957 50.2369 384.062 50.6374 384.062ZM56.3807 376.273V385H55.1065V376.273H56.3807ZM58.0948 385V378.455H59.369V385H58.0948ZM58.7383 377.445C58.5167 377.445 58.3263 377.371 58.1673 377.223C58.011 377.072 57.9329 376.893 57.9329 376.686C57.9329 376.476 58.011 376.297 58.1673 376.149C58.3263 375.999 58.5167 375.923 58.7383 375.923C58.9599 375.923 59.1488 375.999 59.305 376.149C59.4641 376.297 59.5437 376.476 59.5437 376.686C59.5437 376.893 59.4641 377.072 59.305 377.223C59.1488 377.371 58.9599 377.445 58.7383 377.445ZM63.8402 385.132C63.2266 385.132 62.6911 384.991 62.2337 384.71C61.7763 384.429 61.4212 384.036 61.1683 383.53C60.9155 383.024 60.7891 382.433 60.7891 381.757C60.7891 381.078 60.9155 380.484 61.1683 379.976C61.4212 379.467 61.7763 379.072 62.2337 378.791C62.6911 378.51 63.2266 378.369 63.8402 378.369C64.4538 378.369 64.9893 378.51 65.4467 378.791C65.9041 379.072 66.2592 379.467 66.5121 379.976C66.7649 380.484 66.8913 381.078 66.8913 381.757C66.8913 382.433 66.7649 383.024 66.5121 383.53C66.2592 384.036 65.9041 384.429 65.4467 384.71C64.9893 384.991 64.4538 385.132 63.8402 385.132ZM63.8445 384.062C64.2422 384.062 64.5717 383.957 64.8331 383.747C65.0945 383.537 65.2876 383.257 65.4126 382.908C65.5405 382.558 65.6044 382.173 65.6044 381.753C65.6044 381.335 65.5405 380.952 65.4126 380.602C65.2876 380.25 65.0945 379.967 64.8331 379.754C64.5717 379.541 64.2422 379.435 63.8445 379.435C63.4439 379.435 63.1115 379.541 62.8473 379.754C62.5859 379.967 62.3913 380.25 62.2635 380.602C62.1385 380.952 62.076 381.335 62.076 381.753C62.076 382.173 62.1385 382.558 62.2635 382.908C62.3913 383.257 62.5859 383.537 62.8473 383.747C63.1115 383.957 63.4439 384.062 63.8445 384.062ZM75.3459 380.76V381.864H71.4766V380.76H75.3459ZM83.0408 385.132C82.396 385.132 81.8406 384.994 81.3746 384.719C80.9116 384.44 80.5536 384.05 80.3008 383.547C80.0508 383.041 79.9258 382.449 79.9258 381.77C79.9258 381.099 80.0508 380.509 80.3008 379.997C80.5536 379.486 80.9059 379.087 81.3576 378.8C81.8121 378.513 82.3434 378.369 82.9513 378.369C83.3207 378.369 83.6786 378.43 84.0252 378.553C84.3718 378.675 84.6829 378.866 84.9585 379.128C85.234 379.389 85.4513 379.729 85.6104 380.146C85.7695 380.561 85.8491 381.065 85.8491 381.659V382.111H80.646V381.156H84.6005C84.6005 380.821 84.5323 380.524 84.396 380.266C84.2596 380.004 84.0678 379.798 83.8207 379.648C83.5763 379.497 83.2894 379.422 82.9599 379.422C82.6019 379.422 82.2894 379.51 82.0224 379.686C81.7582 379.859 81.5536 380.087 81.4087 380.368C81.2667 380.646 81.1957 380.949 81.1957 381.276V382.021C81.1957 382.459 81.2724 382.831 81.4258 383.138C81.582 383.445 81.7994 383.679 82.0778 383.841C82.3562 384 82.6815 384.08 83.0536 384.08C83.2951 384.08 83.5153 384.045 83.7141 383.977C83.913 383.906 84.0849 383.801 84.2298 383.662C84.3746 383.523 84.4854 383.351 84.5621 383.146L85.7681 383.364C85.6715 383.719 85.4982 384.03 85.2482 384.297C85.0011 384.561 84.69 384.767 84.315 384.915C83.9428 385.06 83.5181 385.132 83.0408 385.132ZM88.5369 381.114V385H87.2628V378.455H88.4858V379.52H88.5668C88.7173 379.173 88.9531 378.895 89.2741 378.685C89.598 378.474 90.0057 378.369 90.4972 378.369C90.9432 378.369 91.3338 378.463 91.669 378.651C92.0043 378.835 92.2642 379.111 92.4489 379.477C92.6335 379.844 92.7259 380.297 92.7259 380.837V385H91.4517V380.99C91.4517 380.516 91.3281 380.145 91.081 379.878C90.8338 379.608 90.4943 379.473 90.0625 379.473C89.767 379.473 89.5043 379.537 89.2741 379.665C89.0469 379.793 88.8665 379.98 88.733 380.227C88.6023 380.472 88.5369 380.767 88.5369 381.114ZM96.8849 385.128C96.3565 385.128 95.8849 384.993 95.4702 384.723C95.0582 384.45 94.7344 384.062 94.4986 383.56C94.2656 383.054 94.1491 382.447 94.1491 381.74C94.1491 381.033 94.267 380.428 94.5028 379.925C94.7415 379.422 95.0682 379.037 95.483 378.77C95.8977 378.503 96.3679 378.369 96.8935 378.369C97.2997 378.369 97.6264 378.438 97.8736 378.574C98.1236 378.707 98.3168 378.864 98.4531 379.043C98.5923 379.222 98.7003 379.379 98.777 379.516H98.8537V376.273H100.128V385H98.8835V383.982H98.777C98.7003 384.121 98.5895 384.28 98.4446 384.459C98.3026 384.638 98.1065 384.794 97.8565 384.928C97.6065 385.061 97.2827 385.128 96.8849 385.128ZM97.1662 384.041C97.5327 384.041 97.8423 383.945 98.0952 383.751C98.3509 383.555 98.544 383.284 98.6747 382.938C98.8082 382.591 98.875 382.187 98.875 381.727C98.875 381.273 98.8097 380.875 98.679 380.534C98.5483 380.193 98.3565 379.928 98.1037 379.737C97.8509 379.547 97.5384 379.452 97.1662 379.452C96.7827 379.452 96.4631 379.551 96.2074 379.75C95.9517 379.949 95.7585 380.22 95.6278 380.564C95.5 380.908 95.4361 381.295 95.4361 381.727C95.4361 382.165 95.5014 382.558 95.6321 382.908C95.7628 383.257 95.956 383.534 96.2116 383.739C96.4702 383.94 96.7884 384.041 97.1662 384.041ZM110.027 380.053L108.872 380.257C108.824 380.109 108.747 379.969 108.642 379.835C108.54 379.702 108.401 379.592 108.224 379.507C108.048 379.422 107.828 379.379 107.564 379.379C107.203 379.379 106.902 379.46 106.661 379.622C106.419 379.781 106.298 379.987 106.298 380.24C106.298 380.459 106.379 380.635 106.541 380.768C106.703 380.902 106.964 381.011 107.325 381.097L108.365 381.335C108.967 381.474 109.416 381.689 109.712 381.979C110.007 382.268 110.155 382.645 110.155 383.108C110.155 383.5 110.041 383.849 109.814 384.156C109.589 384.46 109.276 384.699 108.872 384.872C108.472 385.045 108.007 385.132 107.479 385.132C106.746 385.132 106.148 384.976 105.685 384.663C105.222 384.348 104.938 383.901 104.832 383.321L106.064 383.134C106.141 383.455 106.298 383.697 106.537 383.862C106.776 384.024 107.087 384.105 107.47 384.105C107.888 384.105 108.222 384.018 108.472 383.845C108.722 383.669 108.847 383.455 108.847 383.202C108.847 382.997 108.77 382.825 108.616 382.686C108.466 382.547 108.234 382.442 107.922 382.371L106.814 382.128C106.203 381.989 105.751 381.767 105.459 381.463C105.169 381.159 105.024 380.774 105.024 380.308C105.024 379.922 105.132 379.584 105.348 379.294C105.564 379.004 105.862 378.778 106.243 378.616C106.624 378.452 107.06 378.369 107.551 378.369C108.259 378.369 108.815 378.523 109.222 378.83C109.628 379.134 109.896 379.541 110.027 380.053ZM114.611 378.455V379.477H111.036V378.455H114.611ZM111.995 376.886H113.269V383.078C113.269 383.325 113.306 383.511 113.38 383.636C113.453 383.759 113.549 383.842 113.665 383.888C113.784 383.93 113.914 383.952 114.053 383.952C114.155 383.952 114.245 383.945 114.321 383.93C114.398 383.916 114.458 383.905 114.5 383.896L114.73 384.949C114.657 384.977 114.551 385.006 114.415 385.034C114.279 385.065 114.108 385.082 113.904 385.085C113.569 385.091 113.256 385.031 112.966 384.906C112.676 384.781 112.442 384.588 112.263 384.327C112.084 384.065 111.995 383.737 111.995 383.342V376.886ZM117.925 385.145C117.511 385.145 117.136 385.068 116.8 384.915C116.465 384.759 116.2 384.533 116.004 384.237C115.81 383.942 115.714 383.58 115.714 383.151C115.714 382.781 115.785 382.477 115.927 382.239C116.069 382 116.261 381.811 116.502 381.672C116.744 381.533 117.013 381.428 117.312 381.357C117.61 381.286 117.914 381.232 118.224 381.195C118.616 381.149 118.934 381.112 119.178 381.084C119.423 381.053 119.6 381.003 119.711 380.935C119.822 380.866 119.877 380.756 119.877 380.602V380.572C119.877 380.2 119.772 379.912 119.562 379.707C119.354 379.503 119.045 379.401 118.633 379.401C118.204 379.401 117.866 379.496 117.619 379.686C117.374 379.874 117.205 380.082 117.112 380.312L115.914 380.04C116.056 379.642 116.263 379.321 116.536 379.077C116.812 378.83 117.129 378.651 117.487 378.54C117.844 378.426 118.221 378.369 118.616 378.369C118.877 378.369 119.154 378.401 119.447 378.463C119.742 378.523 120.018 378.634 120.273 378.795C120.532 378.957 120.744 379.189 120.908 379.49C121.073 379.788 121.156 380.176 121.156 380.653V385H119.911V384.105H119.86C119.778 384.27 119.654 384.432 119.489 384.591C119.325 384.75 119.113 384.882 118.854 384.987C118.596 385.092 118.286 385.145 117.925 385.145ZM118.202 384.122C118.555 384.122 118.856 384.053 119.106 383.913C119.359 383.774 119.55 383.592 119.681 383.368C119.815 383.141 119.881 382.898 119.881 382.639V381.795C119.836 381.841 119.748 381.884 119.617 381.923C119.489 381.96 119.343 381.993 119.178 382.021C119.013 382.047 118.853 382.071 118.697 382.094C118.54 382.114 118.41 382.131 118.305 382.145C118.058 382.176 117.832 382.229 117.627 382.303C117.425 382.376 117.263 382.483 117.141 382.622C117.022 382.759 116.962 382.94 116.962 383.168C116.962 383.483 117.079 383.722 117.312 383.884C117.545 384.043 117.842 384.122 118.202 384.122ZM125.908 378.455V379.477H122.333V378.455H125.908ZM123.292 376.886H124.566V383.078C124.566 383.325 124.603 383.511 124.676 383.636C124.75 383.759 124.846 383.842 124.962 383.888C125.081 383.93 125.211 383.952 125.35 383.952C125.452 383.952 125.542 383.945 125.618 383.93C125.695 383.916 125.755 383.905 125.797 383.896L126.027 384.949C125.953 384.977 125.848 385.006 125.712 385.034C125.576 385.065 125.405 385.082 125.201 385.085C124.865 385.091 124.553 385.031 124.263 384.906C123.973 384.781 123.739 384.588 123.56 384.327C123.381 384.065 123.292 383.737 123.292 383.342V376.886ZM130.068 385.132C129.423 385.132 128.868 384.994 128.402 384.719C127.939 384.44 127.581 384.05 127.328 383.547C127.078 383.041 126.953 382.449 126.953 381.77C126.953 381.099 127.078 380.509 127.328 379.997C127.581 379.486 127.933 379.087 128.385 378.8C128.839 378.513 129.371 378.369 129.979 378.369C130.348 378.369 130.706 378.43 131.053 378.553C131.399 378.675 131.71 378.866 131.986 379.128C132.261 379.389 132.479 379.729 132.638 380.146C132.797 380.561 132.876 381.065 132.876 381.659V382.111H127.673V381.156H131.628C131.628 380.821 131.56 380.524 131.423 380.266C131.287 380.004 131.095 379.798 130.848 379.648C130.604 379.497 130.317 379.422 129.987 379.422C129.629 379.422 129.317 379.51 129.05 379.686C128.786 379.859 128.581 380.087 128.436 380.368C128.294 380.646 128.223 380.949 128.223 381.276V382.021C128.223 382.459 128.3 382.831 128.453 383.138C128.609 383.445 128.827 383.679 129.105 383.841C129.384 384 129.709 384.08 130.081 384.08C130.322 384.08 130.543 384.045 130.741 383.977C130.94 383.906 131.112 383.801 131.257 383.662C131.402 383.523 131.513 383.351 131.589 383.146L132.795 383.364C132.699 383.719 132.526 384.03 132.276 384.297C132.028 384.561 131.717 384.767 131.342 384.915C130.97 385.06 130.545 385.132 130.068 385.132Z" fill="white"/>
<path d="M15.5327 405.091V394.182H16.2315V405.091H15.5327ZM17.7188 397.565C17.6733 397.162 17.4858 396.849 17.1562 396.628C16.8267 396.403 16.4119 396.291 15.9119 396.291C15.554 396.291 15.2443 396.348 14.983 396.462C14.7216 396.572 14.5185 396.726 14.3736 396.922C14.2315 397.115 14.1605 397.335 14.1605 397.582C14.1605 397.79 14.2088 397.969 14.3054 398.119C14.4048 398.27 14.5341 398.396 14.6932 398.499C14.8551 398.598 15.0284 398.682 15.2131 398.75C15.3977 398.815 15.5753 398.869 15.7457 398.912L16.598 399.134C16.8764 399.202 17.1619 399.294 17.4545 399.411C17.7472 399.527 18.0185 399.68 18.2685 399.871C18.5185 400.061 18.7202 400.297 18.8736 400.578C19.0298 400.859 19.108 401.196 19.108 401.588C19.108 402.082 18.9801 402.521 18.7244 402.905C18.4716 403.288 18.1037 403.591 17.6207 403.812C17.1406 404.034 16.5597 404.145 15.8778 404.145C15.2244 404.145 14.6591 404.041 14.1818 403.834C13.7045 403.626 13.331 403.332 13.0611 402.952C12.7912 402.568 12.642 402.114 12.6136 401.588H13.9347C13.9602 401.903 14.0625 402.166 14.2415 402.376C14.4233 402.584 14.6548 402.739 14.9361 402.841C15.2202 402.94 15.5312 402.99 15.8693 402.99C16.2415 402.99 16.5724 402.932 16.8622 402.815C17.1548 402.696 17.3849 402.531 17.5526 402.321C17.7202 402.108 17.804 401.859 17.804 401.575C17.804 401.317 17.7301 401.105 17.5824 400.94C17.4375 400.776 17.2401 400.639 16.9901 400.531C16.7429 400.423 16.4631 400.328 16.1506 400.246L15.1193 399.964C14.4205 399.774 13.8665 399.494 13.4574 399.125C13.0511 398.756 12.848 398.267 12.848 397.659C12.848 397.156 12.9844 396.717 13.2571 396.342C13.5298 395.967 13.8991 395.676 14.3651 395.469C14.831 395.259 15.3565 395.153 15.9418 395.153C16.5327 395.153 17.054 395.257 17.5057 395.464C17.9602 395.672 18.3182 395.957 18.5795 396.321C18.8409 396.682 18.9773 397.097 18.9886 397.565H17.7188ZM23.511 404.119C22.9002 404.119 22.3604 404.014 21.8917 403.804C21.4258 403.594 21.0607 403.304 20.7965 402.935C20.5323 402.565 20.4016 402.145 20.4045 401.673C20.4016 401.304 20.4769 400.964 20.6303 400.655C20.7866 400.342 20.9982 400.082 21.2653 399.875C21.5323 399.665 21.8306 399.531 22.1602 399.474V399.423C21.7255 399.318 21.3775 399.085 21.1161 398.724C20.8548 398.364 20.7255 397.949 20.7283 397.48C20.7255 397.034 20.8434 396.636 21.082 396.287C21.3235 395.935 21.6545 395.658 22.0749 395.456C22.4954 395.254 22.9741 395.153 23.511 395.153C24.0423 395.153 24.5167 395.256 24.9343 395.46C25.3548 395.662 25.6857 395.939 25.9272 396.291C26.1687 396.641 26.2908 397.037 26.2937 397.48C26.2908 397.949 26.1573 398.364 25.8931 398.724C25.6289 399.085 25.2852 399.318 24.8619 399.423V399.474C25.1886 399.531 25.4826 399.665 25.744 399.875C26.0082 400.082 26.2184 400.342 26.3746 400.655C26.5337 400.964 26.6147 401.304 26.6175 401.673C26.6147 402.145 26.4812 402.565 26.217 402.935C25.9528 403.304 25.5863 403.594 25.1175 403.804C24.6516 404.014 24.1161 404.119 23.511 404.119ZM23.511 403.041C23.8718 403.041 24.1843 402.982 24.4485 402.862C24.7127 402.74 24.9173 402.571 25.0621 402.355C25.207 402.136 25.2809 401.881 25.2837 401.588C25.2809 401.284 25.2013 401.016 25.0451 400.783C24.8917 400.55 24.6829 400.366 24.4187 400.233C24.1545 400.099 23.8519 400.033 23.511 400.033C23.1673 400.033 22.8619 400.099 22.5948 400.233C22.3278 400.366 22.1175 400.55 21.9641 400.783C21.8107 401.016 21.7354 401.284 21.7383 401.588C21.7354 401.881 21.805 402.136 21.9471 402.355C22.092 402.571 22.2979 402.74 22.565 402.862C22.832 402.982 23.1474 403.041 23.511 403.041ZM23.511 398.98C23.8008 398.98 24.0579 398.922 24.2823 398.805C24.5067 398.689 24.6829 398.527 24.8107 398.32C24.9414 398.112 25.0082 397.869 25.011 397.591C25.0082 397.318 24.9428 397.08 24.815 396.875C24.69 396.67 24.5153 396.513 24.2908 396.402C24.0664 396.288 23.8065 396.232 23.511 396.232C23.2099 396.232 22.9457 396.288 22.7184 396.402C22.494 396.513 22.3192 396.67 22.1942 396.875C22.0692 397.08 22.0082 397.318 22.011 397.591C22.0082 397.869 22.0707 398.112 22.1985 398.32C22.3263 398.527 22.5025 398.689 22.7269 398.805C22.9542 398.922 23.2156 398.98 23.511 398.98ZM31.1825 404.119C30.5973 404.119 30.0746 404.018 29.6143 403.817C29.157 403.615 28.7947 403.335 28.5277 402.977C28.2635 402.616 28.1214 402.199 28.1016 401.724H29.4396C29.4567 401.983 29.5433 402.207 29.6996 402.398C29.8587 402.585 30.0661 402.73 30.3217 402.832C30.5774 402.935 30.8615 402.986 31.174 402.986C31.5178 402.986 31.8217 402.926 32.0859 402.807C32.353 402.687 32.5618 402.521 32.7124 402.308C32.8629 402.092 32.9382 401.844 32.9382 401.562C32.9382 401.27 32.8629 401.013 32.7124 400.791C32.5646 400.567 32.3473 400.391 32.0604 400.263C31.7763 400.135 31.4325 400.071 31.0291 400.071H30.2919V398.997H31.0291C31.353 398.997 31.6371 398.939 31.8814 398.822C32.1286 398.706 32.3217 398.544 32.4609 398.337C32.6001 398.126 32.6697 397.881 32.6697 397.599C32.6697 397.33 32.6087 397.095 32.4865 396.896C32.3672 396.695 32.1967 396.537 31.9751 396.423C31.7564 396.31 31.4979 396.253 31.1996 396.253C30.9155 396.253 30.6499 396.305 30.4027 396.411C30.1584 396.513 29.9595 396.661 29.8061 396.854C29.6527 397.044 29.5703 397.273 29.5589 397.54H28.2848C28.299 397.068 28.4382 396.653 28.7024 396.295C28.9695 395.937 29.3217 395.658 29.7592 395.456C30.1967 395.254 30.6825 395.153 31.2166 395.153C31.7763 395.153 32.2592 395.263 32.6655 395.482C33.0746 395.697 33.3899 395.986 33.6115 396.347C33.8359 396.707 33.9467 397.102 33.9439 397.531C33.9467 398.02 33.8104 398.435 33.5348 398.776C33.2621 399.116 32.8984 399.345 32.4439 399.462V399.53C33.0234 399.618 33.4723 399.848 33.7905 400.22C34.1115 400.592 34.2706 401.054 34.2678 401.605C34.2706 402.085 34.1371 402.516 33.8672 402.896C33.6001 403.277 33.2351 403.577 32.772 403.795C32.3089 404.011 31.7791 404.119 31.1825 404.119ZM37.2955 402.807L37.2315 403.271C37.1889 403.612 37.1165 403.967 37.0142 404.337C36.9148 404.709 36.8111 405.054 36.7031 405.372C36.598 405.69 36.5114 405.943 36.4432 406.131H35.5398C35.5767 405.955 35.6278 405.716 35.6932 405.415C35.7585 405.116 35.8224 404.783 35.8849 404.413C35.9474 404.044 35.9943 403.668 36.0256 403.284L36.0682 402.807H37.2955ZM39.1491 404L42.9588 396.466V396.402H38.5526V395.273H44.3224V396.44L40.5256 404H39.1491ZM48.5678 404.119C48.0337 404.119 47.5536 404.017 47.1275 403.812C46.7042 403.605 46.3661 403.321 46.1133 402.96C45.8604 402.599 45.7255 402.188 45.7085 401.724H46.9869C47.0181 402.099 47.1843 402.408 47.4854 402.649C47.7866 402.891 48.1474 403.011 48.5678 403.011C48.9031 403.011 49.1999 402.935 49.4585 402.781C49.7198 402.625 49.9244 402.411 50.0721 402.138C50.2227 401.865 50.2979 401.554 50.2979 401.205C50.2979 400.849 50.2212 400.533 50.0678 400.254C49.9144 399.976 49.7028 399.757 49.4329 399.598C49.1658 399.439 48.859 399.358 48.5124 399.355C48.2482 399.355 47.9826 399.401 47.7156 399.491C47.4485 399.582 47.2326 399.702 47.0678 399.849L45.8619 399.67L46.3519 395.273H51.1502V396.402H47.4471L47.1701 398.844H47.2212C47.3917 398.679 47.6175 398.541 47.8988 398.43C48.1829 398.32 48.4869 398.264 48.8107 398.264C49.342 398.264 49.815 398.391 50.2298 398.643C50.6474 398.896 50.9755 399.241 51.2141 399.679C51.4556 400.114 51.5749 400.614 51.5721 401.179C51.5749 401.744 51.4471 402.249 51.1886 402.692C50.9329 403.135 50.5778 403.484 50.1232 403.74C49.6715 403.993 49.1531 404.119 48.5678 404.119ZM56.0774 404.119C55.4666 404.119 54.9268 404.014 54.4581 403.804C53.9922 403.594 53.6271 403.304 53.3629 402.935C53.0987 402.565 52.968 402.145 52.9709 401.673C52.968 401.304 53.0433 400.964 53.1967 400.655C53.353 400.342 53.5646 400.082 53.8317 399.875C54.0987 399.665 54.397 399.531 54.7266 399.474V399.423C54.2919 399.318 53.9439 399.085 53.6825 398.724C53.4212 398.364 53.2919 397.949 53.2947 397.48C53.2919 397.034 53.4098 396.636 53.6484 396.287C53.8899 395.935 54.2209 395.658 54.6413 395.456C55.0618 395.254 55.5405 395.153 56.0774 395.153C56.6087 395.153 57.0831 395.256 57.5007 395.46C57.9212 395.662 58.2521 395.939 58.4936 396.291C58.7351 396.641 58.8572 397.037 58.8601 397.48C58.8572 397.949 58.7237 398.364 58.4595 398.724C58.1953 399.085 57.8516 399.318 57.4283 399.423V399.474C57.755 399.531 58.049 399.665 58.3104 399.875C58.5746 400.082 58.7848 400.342 58.9411 400.655C59.1001 400.964 59.1811 401.304 59.1839 401.673C59.1811 402.145 59.0476 402.565 58.7834 402.935C58.5192 403.304 58.1527 403.594 57.6839 403.804C57.218 404.014 56.6825 404.119 56.0774 404.119ZM56.0774 403.041C56.4382 403.041 56.7507 402.982 57.0149 402.862C57.2791 402.74 57.4837 402.571 57.6286 402.355C57.7734 402.136 57.8473 401.881 57.8501 401.588C57.8473 401.284 57.7678 401.016 57.6115 400.783C57.4581 400.55 57.2493 400.366 56.9851 400.233C56.7209 400.099 56.4183 400.033 56.0774 400.033C55.7337 400.033 55.4283 400.099 55.1612 400.233C54.8942 400.366 54.6839 400.55 54.5305 400.783C54.3771 401.016 54.3018 401.284 54.3047 401.588C54.3018 401.881 54.3714 402.136 54.5135 402.355C54.6584 402.571 54.8643 402.74 55.1314 402.862C55.3984 402.982 55.7138 403.041 56.0774 403.041ZM56.0774 398.98C56.3672 398.98 56.6243 398.922 56.8487 398.805C57.0732 398.689 57.2493 398.527 57.3771 398.32C57.5078 398.112 57.5746 397.869 57.5774 397.591C57.5746 397.318 57.5092 397.08 57.3814 396.875C57.2564 396.67 57.0817 396.513 56.8572 396.402C56.6328 396.288 56.3729 396.232 56.0774 396.232C55.7763 396.232 55.5121 396.288 55.2848 396.402C55.0604 396.513 54.8857 396.67 54.7607 396.875C54.6357 397.08 54.5746 397.318 54.5774 397.591C54.5746 397.869 54.6371 398.112 54.7649 398.32C54.8928 398.527 55.0689 398.689 55.2933 398.805C55.5206 398.922 55.782 398.98 56.0774 398.98ZM61.3093 404.081C61.0763 404.081 60.8761 403.999 60.7085 403.834C60.5408 403.666 60.457 403.464 60.457 403.229C60.457 402.996 60.5408 402.797 60.7085 402.632C60.8761 402.464 61.0763 402.381 61.3093 402.381C61.5423 402.381 61.7425 402.464 61.9102 402.632C62.0778 402.797 62.1616 402.996 62.1616 403.229C62.1616 403.385 62.1218 403.528 62.0423 403.659C61.9656 403.787 61.8633 403.889 61.7354 403.966C61.6076 404.043 61.4656 404.081 61.3093 404.081ZM66.5071 404.119C65.8963 404.119 65.3565 404.014 64.8878 403.804C64.4219 403.594 64.0568 403.304 63.7926 402.935C63.5284 402.565 63.3977 402.145 63.4006 401.673C63.3977 401.304 63.473 400.964 63.6264 400.655C63.7827 400.342 63.9943 400.082 64.2614 399.875C64.5284 399.665 64.8267 399.531 65.1562 399.474V399.423C64.7216 399.318 64.3736 399.085 64.1122 398.724C63.8509 398.364 63.7216 397.949 63.7244 397.48C63.7216 397.034 63.8395 396.636 64.0781 396.287C64.3196 395.935 64.6506 395.658 65.071 395.456C65.4915 395.254 65.9702 395.153 66.5071 395.153C67.0384 395.153 67.5128 395.256 67.9304 395.46C68.3509 395.662 68.6818 395.939 68.9233 396.291C69.1648 396.641 69.2869 397.037 69.2898 397.48C69.2869 397.949 69.1534 398.364 68.8892 398.724C68.625 399.085 68.2813 399.318 67.858 399.423V399.474C68.1847 399.531 68.4787 399.665 68.7401 399.875C69.0043 400.082 69.2145 400.342 69.3707 400.655C69.5298 400.964 69.6108 401.304 69.6136 401.673C69.6108 402.145 69.4773 402.565 69.2131 402.935C68.9489 403.304 68.5824 403.594 68.1136 403.804C67.6477 404.014 67.1122 404.119 66.5071 404.119ZM66.5071 403.041C66.8679 403.041 67.1804 402.982 67.4446 402.862C67.7088 402.74 67.9134 402.571 68.0582 402.355C68.2031 402.136 68.277 401.881 68.2798 401.588C68.277 401.284 68.1974 401.016 68.0412 400.783C67.8878 400.55 67.679 400.366 67.4148 400.233C67.1506 400.099 66.848 400.033 66.5071 400.033C66.1634 400.033 65.858 400.099 65.5909 400.233C65.3239 400.366 65.1136 400.55 64.9602 400.783C64.8068 401.016 64.7315 401.284 64.7344 401.588C64.7315 401.881 64.8011 402.136 64.9432 402.355C65.0881 402.571 65.294 402.74 65.5611 402.862C65.8281 402.982 66.1435 403.041 66.5071 403.041ZM66.5071 398.98C66.7969 398.98 67.054 398.922 67.2784 398.805C67.5028 398.689 67.679 398.527 67.8068 398.32C67.9375 398.112 68.0043 397.869 68.0071 397.591C68.0043 397.318 67.9389 397.08 67.8111 396.875C67.6861 396.67 67.5114 396.513 67.2869 396.402C67.0625 396.288 66.8026 396.232 66.5071 396.232C66.206 396.232 65.9418 396.288 65.7145 396.402C65.4901 396.513 65.3153 396.67 65.1903 396.875C65.0653 397.08 65.0043 397.318 65.0071 397.591C65.0043 397.869 65.0668 398.112 65.1946 398.32C65.3224 398.527 65.4986 398.689 65.723 398.805C65.9503 398.922 66.2116 398.98 66.5071 398.98ZM74.1871 404.119C73.7979 404.114 73.4144 404.043 73.0366 403.906C72.6616 403.77 72.3207 403.543 72.0138 403.224C71.707 402.906 71.4613 402.479 71.2766 401.942C71.0948 401.405 71.0039 400.734 71.0039 399.93C71.0039 399.169 71.0792 398.493 71.2298 397.902C71.3832 397.311 71.6033 396.812 71.8903 396.406C72.1772 395.997 72.5238 395.686 72.93 395.473C73.3363 395.26 73.7923 395.153 74.2979 395.153C74.8178 395.153 75.2795 395.256 75.6829 395.46C76.0863 395.665 76.413 395.947 76.663 396.308C76.9158 396.669 77.0763 397.08 77.1445 397.54H75.8448C75.7567 397.176 75.582 396.879 75.3207 396.649C75.0593 396.419 74.7184 396.304 74.2979 396.304C73.6587 396.304 73.1602 396.582 72.8022 397.139C72.4471 397.696 72.2681 398.47 72.2653 399.462H72.3292C72.4798 399.214 72.6644 399.004 72.8832 398.831C73.1048 398.655 73.3519 398.52 73.6246 398.426C73.9002 398.33 74.19 398.281 74.494 398.281C74.9996 398.281 75.457 398.405 75.8661 398.652C76.2781 398.896 76.6062 399.234 76.8505 399.666C77.0948 400.098 77.217 400.592 77.217 401.149C77.217 401.706 77.0906 402.21 76.8377 402.662C76.5877 403.114 76.2354 403.472 75.7809 403.736C75.3263 403.997 74.7951 404.125 74.1871 404.119ZM74.1829 403.011C74.5181 403.011 74.8178 402.929 75.082 402.764C75.3462 402.599 75.555 402.378 75.7085 402.099C75.8619 401.821 75.9386 401.51 75.9386 401.166C75.9386 400.831 75.8633 400.526 75.7127 400.25C75.565 399.974 75.3604 399.756 75.0991 399.594C74.8406 399.432 74.5451 399.351 74.2127 399.351C73.9599 399.351 73.7255 399.399 73.5096 399.496C73.2965 399.592 73.109 399.726 72.9471 399.896C72.7852 400.067 72.6573 400.263 72.5636 400.484C72.4727 400.703 72.4272 400.935 72.4272 401.179C72.4272 401.506 72.5025 401.808 72.6531 402.087C72.8065 402.365 73.0153 402.589 73.2795 402.76C73.5465 402.928 73.8477 403.011 74.1829 403.011Z" fill="#3BD971"/>
<path d="M104.656 402.295V401.23L108.428 395.273H109.267V396.841H108.734L106.037 401.111V401.179H111.206V402.295H104.656ZM108.794 404V401.972L108.803 401.486V395.273H110.051V404H108.794ZM115.64 404.119C115.029 404.119 114.489 404.014 114.021 403.804C113.555 403.594 113.19 403.304 112.925 402.935C112.661 402.565 112.531 402.145 112.533 401.673C112.531 401.304 112.606 400.964 112.759 400.655C112.915 400.342 113.127 400.082 113.394 399.875C113.661 399.665 113.96 399.531 114.289 399.474V399.423C113.854 399.318 113.506 399.085 113.245 398.724C112.984 398.364 112.854 397.949 112.857 397.48C112.854 397.034 112.972 396.636 113.211 396.287C113.452 395.935 113.783 395.658 114.204 395.456C114.624 395.254 115.103 395.153 115.64 395.153C116.171 395.153 116.646 395.256 117.063 395.46C117.484 395.662 117.815 395.939 118.056 396.291C118.298 396.641 118.42 397.037 118.423 397.48C118.42 397.949 118.286 398.364 118.022 398.724C117.758 399.085 117.414 399.318 116.991 399.423V399.474C117.317 399.531 117.612 399.665 117.873 399.875C118.137 400.082 118.347 400.342 118.504 400.655C118.663 400.964 118.744 401.304 118.746 401.673C118.744 402.145 118.61 402.565 118.346 402.935C118.082 403.304 117.715 403.594 117.246 403.804C116.781 404.014 116.245 404.119 115.64 404.119ZM115.64 403.041C116.001 403.041 116.313 402.982 116.577 402.862C116.842 402.74 117.046 402.571 117.191 402.355C117.336 402.136 117.41 401.881 117.413 401.588C117.41 401.284 117.33 401.016 117.174 400.783C117.021 400.55 116.812 400.366 116.548 400.233C116.283 400.099 115.981 400.033 115.64 400.033C115.296 400.033 114.991 400.099 114.724 400.233C114.457 400.366 114.246 400.55 114.093 400.783C113.94 401.016 113.864 401.284 113.867 401.588C113.864 401.881 113.934 402.136 114.076 402.355C114.221 402.571 114.427 402.74 114.694 402.862C114.961 402.982 115.276 403.041 115.64 403.041ZM115.64 398.98C115.93 398.98 116.187 398.922 116.411 398.805C116.636 398.689 116.812 398.527 116.94 398.32C117.07 398.112 117.137 397.869 117.14 397.591C117.137 397.318 117.072 397.08 116.944 396.875C116.819 396.67 116.644 396.513 116.42 396.402C116.195 396.288 115.935 396.232 115.64 396.232C115.339 396.232 115.075 396.288 114.847 396.402C114.623 396.513 114.448 396.67 114.323 396.875C114.198 397.08 114.137 397.318 114.14 397.591C114.137 397.869 114.2 398.112 114.327 398.32C114.455 398.527 114.631 398.689 114.856 398.805C115.083 398.922 115.344 398.98 115.64 398.98ZM120.872 404.081C120.639 404.081 120.439 403.999 120.271 403.834C120.103 403.666 120.02 403.464 120.02 403.229C120.02 402.996 120.103 402.797 120.271 402.632C120.439 402.464 120.639 402.381 120.872 402.381C121.105 402.381 121.305 402.464 121.473 402.632C121.64 402.797 121.724 402.996 121.724 403.229C121.724 403.385 121.684 403.528 121.605 403.659C121.528 403.787 121.426 403.889 121.298 403.966C121.17 404.043 121.028 404.081 120.872 404.081ZM126.144 404.119C125.755 404.114 125.371 404.043 124.994 403.906C124.619 403.77 124.278 403.543 123.971 403.224C123.664 402.906 123.418 402.479 123.234 401.942C123.052 401.405 122.961 400.734 122.961 399.93C122.961 399.169 123.036 398.493 123.187 397.902C123.34 397.311 123.56 396.812 123.847 396.406C124.134 395.997 124.481 395.686 124.887 395.473C125.293 395.26 125.749 395.153 126.255 395.153C126.775 395.153 127.237 395.256 127.64 395.46C128.043 395.665 128.37 395.947 128.62 396.308C128.873 396.669 129.033 397.08 129.102 397.54H127.802C127.714 397.176 127.539 396.879 127.278 396.649C127.016 396.419 126.675 396.304 126.255 396.304C125.616 396.304 125.117 396.582 124.759 397.139C124.404 397.696 124.225 398.47 124.222 399.462H124.286C124.437 399.214 124.621 399.004 124.84 398.831C125.062 398.655 125.309 398.52 125.582 398.426C125.857 398.33 126.147 398.281 126.451 398.281C126.957 398.281 127.414 398.405 127.823 398.652C128.235 398.896 128.563 399.234 128.808 399.666C129.052 400.098 129.174 400.592 129.174 401.149C129.174 401.706 129.048 402.21 128.795 402.662C128.545 403.114 128.192 403.472 127.738 403.736C127.283 403.997 126.752 404.125 126.144 404.119ZM126.14 403.011C126.475 403.011 126.775 402.929 127.039 402.764C127.303 402.599 127.512 402.378 127.665 402.099C127.819 401.821 127.896 401.51 127.896 401.166C127.896 400.831 127.82 400.526 127.67 400.25C127.522 399.974 127.317 399.756 127.056 399.594C126.798 399.432 126.502 399.351 126.17 399.351C125.917 399.351 125.683 399.399 125.467 399.496C125.254 399.592 125.066 399.726 124.904 399.896C124.742 400.067 124.614 400.263 124.521 400.484C124.43 400.703 124.384 400.935 124.384 401.179C124.384 401.506 124.46 401.808 124.61 402.087C124.763 402.365 124.972 402.589 125.237 402.76C125.504 402.928 125.805 403.011 126.14 403.011ZM135.282 402.364V401.903C135.282 401.574 135.35 401.273 135.486 401C135.625 400.724 135.827 400.504 136.091 400.339C136.358 400.172 136.681 400.088 137.059 400.088C137.445 400.088 137.769 400.17 138.03 400.335C138.292 400.5 138.489 400.72 138.623 400.996C138.759 401.271 138.827 401.574 138.827 401.903V402.364C138.827 402.693 138.759 402.996 138.623 403.271C138.486 403.544 138.286 403.764 138.022 403.932C137.76 404.097 137.439 404.179 137.059 404.179C136.675 404.179 136.351 404.097 136.087 403.932C135.823 403.764 135.623 403.544 135.486 403.271C135.35 402.996 135.282 402.693 135.282 402.364ZM136.275 401.903V402.364C136.275 402.608 136.333 402.83 136.449 403.028C136.566 403.227 136.769 403.327 137.059 403.327C137.346 403.327 137.546 403.227 137.659 403.028C137.773 402.83 137.83 402.608 137.83 402.364V401.903C137.83 401.659 137.775 401.437 137.664 401.239C137.556 401.04 137.354 400.94 137.059 400.94C136.775 400.94 136.573 401.04 136.453 401.239C136.334 401.437 136.275 401.659 136.275 401.903ZM130.892 397.369V396.909C130.892 396.58 130.961 396.277 131.097 396.001C131.236 395.726 131.438 395.506 131.702 395.341C131.969 395.176 132.292 395.094 132.669 395.094C133.056 395.094 133.38 395.176 133.641 395.341C133.902 395.506 134.1 395.726 134.233 396.001C134.367 396.277 134.434 396.58 134.434 396.909V397.369C134.434 397.699 134.365 398.001 134.229 398.277C134.096 398.55 133.897 398.77 133.632 398.938C133.371 399.102 133.05 399.185 132.669 399.185C132.283 399.185 131.958 399.102 131.694 398.938C131.432 398.77 131.233 398.55 131.097 398.277C130.961 398.001 130.892 397.699 130.892 397.369ZM131.89 396.909V397.369C131.89 397.614 131.946 397.835 132.06 398.034C132.176 398.233 132.38 398.332 132.669 398.332C132.953 398.332 133.152 398.233 133.266 398.034C133.382 397.835 133.441 397.614 133.441 397.369V396.909C133.441 396.665 133.385 396.443 133.275 396.244C133.164 396.045 132.962 395.946 132.669 395.946C132.385 395.946 132.184 396.045 132.064 396.244C131.948 396.443 131.89 396.665 131.89 396.909ZM131.297 404L137.297 395.273H138.316L132.316 404H131.297Z" fill="#3BD971"/>
<path d="M84.4541 399.5L96.8177 399.5" stroke="white" stroke-linecap="round" stroke-linejoin="round"/>
<path d="M93 396L97 399.5L93 403" stroke="white" stroke-linecap="round" stroke-linejoin="round"/>
<rect x="168" y="365" width="152" height="50" rx="4" fill="white" fill-opacity="0.02"/>
<rect x="168.5" y="365.5" width="151" height="49" rx="3.5" stroke="white" stroke-opacity="0.05"/>
<mask id="path-21-inside-1_1316_9602" fill="white">
<path fill-rule="evenodd" clip-rule="evenodd" d="M287 0C284.791 0 283 1.79086 283 4V46C283 48.2091 284.791 50 287 50H328.029C329.09 50 330.108 50.4214 330.858 51.1716L337.485 57.799C339.047 59.3611 341.58 59.3611 343.142 57.799L349.77 51.1716C350.52 50.4214 351.537 50 352.598 50H393C395.209 50 397 48.2091 397 46V4C397 1.79086 395.209 0 393 0H287Z"/>
</mask>
<path fill-rule="evenodd" clip-rule="evenodd" d="M287 0C284.791 0 283 1.79086 283 4V46C283 48.2091 284.791 50 287 50H328.029C329.09 50 330.108 50.4214 330.858 51.1716L337.485 57.799C339.047 59.3611 341.58 59.3611 343.142 57.799L349.77 51.1716C350.52 50.4214 351.537 50 352.598 50H393C395.209 50 397 48.2091 397 46V4C397 1.79086 395.209 0 393 0H287Z" fill="white" fill-opacity="0.02"/>
<path d="M284 4C284 2.34315 285.343 1 287 1V-1C284.239 -1 282 1.23858 282 4H284ZM284 46V4H282V46H284ZM287 49C285.343 49 284 47.6569 284 46H282C282 48.7614 284.239 51 287 51V49ZM328.029 49H287V51H328.029V49ZM338.192 57.0919L331.565 50.4645L330.151 51.8787L336.778 58.5061L338.192 57.0919ZM349.062 50.4645L342.435 57.0919L343.849 58.5061L350.477 51.8787L349.062 50.4645ZM393 49H352.598V51H393V49ZM396 46C396 47.6569 394.657 49 393 49V51C395.761 51 398 48.7614 398 46H396ZM396 4V46H398V4H396ZM393 1C394.657 1 396 2.34315 396 4H398C398 1.23858 395.761 -1 393 -1V1ZM287 1H393V-1H287V1ZM350.477 51.8787C351.039 51.3161 351.802 51 352.598 51V49C351.272 49 350 49.5268 349.062 50.4645L350.477 51.8787ZM336.778 58.5061C338.731 60.4587 341.897 60.4587 343.849 58.5061L342.435 57.0919C341.263 58.2635 339.364 58.2635 338.192 57.0919L336.778 58.5061ZM328.029 51C328.825 51 329.588 51.3161 330.151 51.8787L331.565 50.4645C330.627 49.5268 329.356 49 328.029 49V51Z" fill="white" fill-opacity="0.05" mask="url(#path-21-inside-1_1316_9602)"/>
<path d="M305.095 11.3636V23H302.987V13.4148H302.919L300.197 15.1534V13.2216L303.089 11.3636H305.095ZM312.783 11.3636V23H310.675V13.4148H310.607L307.885 15.1534V13.2216L310.777 11.3636H312.783ZM315.737 23V21.4773L319.777 17.517C320.163 17.1269 320.485 16.7803 320.743 16.4773C321 16.1742 321.194 15.8807 321.322 15.5966C321.451 15.3125 321.516 15.0095 321.516 14.6875C321.516 14.3201 321.432 14.0057 321.266 13.7443C321.099 13.4792 320.87 13.2746 320.578 13.1307C320.286 12.9867 319.955 12.9148 319.584 12.9148C319.201 12.9148 318.866 12.9943 318.578 13.1534C318.29 13.3087 318.067 13.5303 317.908 13.8182C317.752 14.1061 317.675 14.4489 317.675 14.8466H315.669C315.669 14.108 315.838 13.4659 316.175 12.9205C316.512 12.375 316.976 11.9527 317.567 11.6534C318.161 11.3542 318.843 11.2045 319.612 11.2045C320.393 11.2045 321.078 11.3504 321.669 11.642C322.26 11.9337 322.718 12.3333 323.044 12.8409C323.374 13.3485 323.538 13.928 323.538 14.5795C323.538 15.0152 323.455 15.4432 323.288 15.8636C323.122 16.2841 322.828 16.75 322.408 17.2614C321.991 17.7727 321.406 18.392 320.652 19.1193L318.646 21.1591V21.2386H323.714V23H315.737ZM328.112 21.4091L328.038 22.0341C327.985 22.5114 327.891 22.9962 327.754 23.4886C327.622 23.9848 327.482 24.4413 327.334 24.858C327.186 25.2746 327.067 25.6023 326.976 25.8409H325.589C325.643 25.6098 325.714 25.2955 325.805 24.8977C325.9 24.5 325.991 24.053 326.078 23.5568C326.165 23.0606 326.224 22.5568 326.254 22.0455L326.294 21.4091H328.112ZM334.298 23.1591C333.541 23.1591 332.863 23.017 332.264 22.733C331.666 22.4451 331.19 22.0511 330.838 21.5511C330.49 21.0511 330.304 20.4792 330.281 19.8352H332.327C332.365 20.3125 332.571 20.7027 332.946 21.0057C333.321 21.3049 333.772 21.4545 334.298 21.4545C334.711 21.4545 335.079 21.3598 335.401 21.1705C335.723 20.9811 335.976 20.7178 336.162 20.3807C336.348 20.0436 336.438 19.6591 336.435 19.2273C336.438 18.7879 336.346 18.3977 336.156 18.0568C335.967 17.7159 335.707 17.4489 335.378 17.2557C335.048 17.0587 334.67 16.9602 334.241 16.9602C333.893 16.9564 333.55 17.0208 333.213 17.1534C332.876 17.286 332.609 17.4602 332.412 17.6761L330.509 17.3636L331.116 11.3636H337.866V13.125H332.861L332.526 16.2102H332.594C332.81 15.9564 333.115 15.7462 333.509 15.5795C333.902 15.4091 334.334 15.3239 334.804 15.3239C335.509 15.3239 336.137 15.4905 336.69 15.8239C337.243 16.1534 337.679 16.608 337.997 17.1875C338.315 17.767 338.474 18.4299 338.474 19.1761C338.474 19.9451 338.296 20.6307 337.94 21.233C337.588 21.8314 337.098 22.303 336.469 22.6477C335.844 22.9886 335.12 23.1591 334.298 23.1591ZM344.554 23.1591C343.736 23.1591 343.009 23.0189 342.372 22.7386C341.74 22.4583 341.24 22.0682 340.872 21.5682C340.505 21.0682 340.31 20.4905 340.287 19.8352H342.423C342.442 20.1496 342.546 20.4242 342.736 20.6591C342.925 20.8902 343.177 21.0701 343.491 21.1989C343.806 21.3277 344.158 21.392 344.548 21.392C344.965 21.392 345.334 21.3201 345.656 21.1761C345.978 21.0284 346.23 20.8239 346.412 20.5625C346.594 20.3011 346.683 20 346.679 19.6591C346.683 19.3068 346.592 18.9962 346.406 18.7273C346.221 18.4583 345.952 18.2481 345.599 18.0966C345.251 17.9451 344.83 17.8693 344.338 17.8693H343.31V16.2443H344.338C344.743 16.2443 345.098 16.1742 345.401 16.0341C345.707 15.8939 345.948 15.697 346.122 15.4432C346.296 15.1856 346.382 14.8883 346.378 14.5511C346.382 14.2216 346.308 13.9356 346.156 13.6932C346.009 13.447 345.798 13.2557 345.526 13.1193C345.257 12.983 344.94 12.9148 344.577 12.9148C344.221 12.9148 343.891 12.9792 343.588 13.108C343.285 13.2367 343.041 13.4205 342.855 13.6591C342.67 13.8939 342.571 14.1742 342.56 14.5H340.531C340.546 13.8485 340.734 13.2765 341.094 12.7841C341.457 12.2879 341.942 11.9015 342.548 11.625C343.154 11.3447 343.834 11.2045 344.588 11.2045C345.365 11.2045 346.039 11.3504 346.611 11.642C347.187 11.9299 347.632 12.3182 347.946 12.8068C348.26 13.2955 348.418 13.8352 348.418 14.4261C348.421 15.0814 348.228 15.6307 347.838 16.0739C347.452 16.517 346.944 16.8068 346.315 16.9432V17.0341C347.134 17.1477 347.76 17.4508 348.196 17.9432C348.635 18.4318 348.853 19.0398 348.849 19.767C348.849 20.4186 348.664 21.0019 348.293 21.517C347.925 22.0284 347.418 22.4299 346.77 22.7216C346.126 23.0133 345.387 23.1591 344.554 23.1591ZM358.825 23H354.882V11.3636H358.905C360.06 11.3636 361.053 11.5966 361.882 12.0625C362.715 12.5246 363.356 13.1894 363.803 14.0568C364.25 14.9242 364.473 15.9621 364.473 17.1705C364.473 18.3826 364.248 19.4242 363.797 20.2955C363.35 21.1667 362.704 21.8352 361.859 22.3011C361.018 22.767 360.007 23 358.825 23ZM356.99 21.1761H358.723C359.534 21.1761 360.21 21.0284 360.751 20.733C361.293 20.4337 361.7 19.9886 361.973 19.3977C362.246 18.803 362.382 18.0606 362.382 17.1705C362.382 16.2803 362.246 15.5417 361.973 14.9545C361.7 14.3636 361.297 13.9223 360.763 13.6307C360.232 13.3352 359.573 13.1875 358.786 13.1875H356.99V21.1761ZM367.345 23H365.095L369.192 11.3636H371.794L375.896 23H373.646L370.538 13.75H370.447L367.345 23ZM367.419 18.4375H373.555V20.1307H367.419V18.4375ZM379.537 11.3636V23H377.429V11.3636H379.537Z" fill="white"/>
<path d="M322.516 38.5341V32.7727H323.662V38.5341H322.516ZM320.21 36.2244V35.0824H325.972V36.2244H320.21ZM327.926 40L331.736 32.4659V32.402H327.33V31.2727H333.1V32.4403L329.303 40H327.926ZM334.756 38.8068L334.692 39.2713C334.65 39.6122 334.577 39.9673 334.475 40.3366C334.376 40.7088 334.272 41.054 334.164 41.3722C334.059 41.6903 333.972 41.9432 333.904 42.1307H333.001C333.038 41.9545 333.089 41.7159 333.154 41.4148C333.219 41.1165 333.283 40.7827 333.346 40.4134C333.408 40.044 333.455 39.6676 333.487 39.2841L333.529 38.8068H334.756ZM339.261 40.1193C338.675 40.1193 338.153 40.0185 337.692 39.8168C337.235 39.6151 336.873 39.3352 336.606 38.9773C336.342 38.6165 336.2 38.1989 336.18 37.7244H337.518C337.535 37.983 337.621 38.2074 337.778 38.3977C337.937 38.5852 338.144 38.7301 338.4 38.8324C338.656 38.9347 338.94 38.9858 339.252 38.9858C339.596 38.9858 339.9 38.9261 340.164 38.8068C340.431 38.6875 340.64 38.5213 340.79 38.3082C340.941 38.0923 341.016 37.8438 341.016 37.5625C341.016 37.2699 340.941 37.0128 340.79 36.7912C340.643 36.5668 340.425 36.3906 340.138 36.2628C339.854 36.1349 339.511 36.071 339.107 36.071H338.37V34.9972H339.107C339.431 34.9972 339.715 34.9389 339.96 34.8224C340.207 34.706 340.4 34.544 340.539 34.3366C340.678 34.1264 340.748 33.8807 340.748 33.5994C340.748 33.3295 340.687 33.0952 340.565 32.8963C340.445 32.6946 340.275 32.5369 340.053 32.4233C339.835 32.3097 339.576 32.2528 339.278 32.2528C338.994 32.2528 338.728 32.3054 338.481 32.4105C338.237 32.5128 338.038 32.6605 337.884 32.8537C337.731 33.044 337.648 33.2727 337.637 33.5398H336.363C336.377 33.0682 336.516 32.6534 336.781 32.2955C337.048 31.9375 337.4 31.6577 337.837 31.456C338.275 31.2543 338.761 31.1534 339.295 31.1534C339.854 31.1534 340.337 31.2628 340.744 31.4815C341.153 31.6974 341.468 31.9858 341.69 32.3466C341.914 32.7074 342.025 33.1023 342.022 33.5312C342.025 34.0199 341.888 34.4347 341.613 34.7756C341.34 35.1165 340.977 35.3452 340.522 35.4616V35.5298C341.102 35.6179 341.55 35.848 341.869 36.2202C342.19 36.5923 342.349 37.054 342.346 37.6051C342.349 38.0852 342.215 38.5156 341.945 38.8963C341.678 39.277 341.313 39.5767 340.85 39.7955C340.387 40.0114 339.857 40.1193 339.261 40.1193ZM343.773 38.2955V37.2301L347.545 31.2727H348.384V32.8409H347.852L345.154 37.1108V37.179H350.323V38.2955H343.773ZM347.911 40V37.9716L347.92 37.4858V31.2727H349.168V40H347.911ZM356.364 38.3636V37.9034C356.364 37.5739 356.432 37.2727 356.568 37C356.707 36.7244 356.909 36.5043 357.173 36.3395C357.44 36.1719 357.763 36.0881 358.141 36.0881C358.527 36.0881 358.851 36.1705 359.112 36.3352C359.374 36.5 359.571 36.7202 359.705 36.9957C359.841 37.2713 359.909 37.5739 359.909 37.9034V38.3636C359.909 38.6932 359.841 38.9957 359.705 39.2713C359.568 39.544 359.368 39.7642 359.104 39.9318C358.842 40.0966 358.521 40.179 358.141 40.179C357.757 40.179 357.433 40.0966 357.169 39.9318C356.905 39.7642 356.705 39.544 356.568 39.2713C356.432 38.9957 356.364 38.6932 356.364 38.3636ZM357.357 37.9034V38.3636C357.357 38.608 357.415 38.8295 357.531 39.0284C357.648 39.2273 357.851 39.3267 358.141 39.3267C358.428 39.3267 358.628 39.2273 358.741 39.0284C358.855 38.8295 358.912 38.608 358.912 38.3636V37.9034C358.912 37.6591 358.857 37.4375 358.746 37.2386C358.638 37.0398 358.436 36.9403 358.141 36.9403C357.857 36.9403 357.655 37.0398 357.536 37.2386C357.416 37.4375 357.357 37.6591 357.357 37.9034ZM351.974 33.3693V32.9091C351.974 32.5795 352.043 32.277 352.179 32.0014C352.318 31.7259 352.52 31.5057 352.784 31.3409C353.051 31.1761 353.374 31.0938 353.751 31.0938C354.138 31.0938 354.462 31.1761 354.723 31.3409C354.984 31.5057 355.182 31.7259 355.315 32.0014C355.449 32.277 355.516 32.5795 355.516 32.9091V33.3693C355.516 33.6989 355.447 34.0014 355.311 34.277C355.178 34.5497 354.979 34.7699 354.714 34.9375C354.453 35.1023 354.132 35.1847 353.751 35.1847C353.365 35.1847 353.04 35.1023 352.776 34.9375C352.514 34.7699 352.315 34.5497 352.179 34.277C352.043 34.0014 351.974 33.6989 351.974 33.3693ZM352.972 32.9091V33.3693C352.972 33.6136 353.028 33.8352 353.142 34.0341C353.259 34.233 353.462 34.3324 353.751 34.3324C354.036 34.3324 354.234 34.233 354.348 34.0341C354.464 33.8352 354.523 33.6136 354.523 33.3693V32.9091C354.523 32.6648 354.467 32.4432 354.357 32.2443C354.246 32.0455 354.044 31.946 353.751 31.946C353.467 31.946 353.266 32.0455 353.146 32.2443C353.03 32.4432 352.972 32.6648 352.972 32.9091ZM352.379 40L358.379 31.2727H359.398L353.398 40H352.379Z" fill="#537BE8"/>
<path d="M218.861 379.03C218.779 378.771 218.668 378.54 218.529 378.335C218.392 378.128 218.229 377.952 218.039 377.807C217.848 377.659 217.631 377.547 217.387 377.47C217.145 377.393 216.88 377.355 216.59 377.355C216.098 377.355 215.655 377.482 215.26 377.734C214.865 377.987 214.553 378.358 214.323 378.847C214.096 379.332 213.982 379.928 213.982 380.632C213.982 381.339 214.097 381.937 214.327 382.426C214.557 382.915 214.873 383.286 215.273 383.538C215.674 383.791 216.13 383.918 216.641 383.918C217.115 383.918 217.529 383.821 217.881 383.628C218.236 383.435 218.51 383.162 218.703 382.81C218.9 382.455 218.998 382.037 218.998 381.557L219.338 381.621H216.841V380.534H220.272V381.527C220.272 382.26 220.115 382.896 219.803 383.436C219.493 383.973 219.064 384.388 218.516 384.68C217.971 384.973 217.346 385.119 216.641 385.119C215.851 385.119 215.158 384.938 214.561 384.574C213.968 384.21 213.505 383.695 213.172 383.027C212.84 382.357 212.674 381.561 212.674 380.641C212.674 379.945 212.77 379.32 212.963 378.766C213.157 378.212 213.428 377.741 213.777 377.355C214.13 376.966 214.543 376.669 215.017 376.464C215.495 376.257 216.016 376.153 216.581 376.153C217.053 376.153 217.492 376.223 217.898 376.362C218.307 376.501 218.671 376.699 218.989 376.955C219.31 377.21 219.576 377.514 219.786 377.866C219.996 378.216 220.138 378.604 220.212 379.03H218.861ZM223.115 376.273V385H221.841V376.273H223.115ZM227.586 385.132C226.973 385.132 226.437 384.991 225.98 384.71C225.522 384.429 225.167 384.036 224.914 383.53C224.662 383.024 224.535 382.433 224.535 381.757C224.535 381.078 224.662 380.484 224.914 379.976C225.167 379.467 225.522 379.072 225.98 378.791C226.437 378.51 226.973 378.369 227.586 378.369C228.2 378.369 228.735 378.51 229.193 378.791C229.65 379.072 230.005 379.467 230.258 379.976C230.511 380.484 230.637 381.078 230.637 381.757C230.637 382.433 230.511 383.024 230.258 383.53C230.005 384.036 229.65 384.429 229.193 384.71C228.735 384.991 228.2 385.132 227.586 385.132ZM227.591 384.062C227.988 384.062 228.318 383.957 228.579 383.747C228.841 383.537 229.034 383.257 229.159 382.908C229.287 382.558 229.35 382.173 229.35 381.753C229.35 381.335 229.287 380.952 229.159 380.602C229.034 380.25 228.841 379.967 228.579 379.754C228.318 379.541 227.988 379.435 227.591 379.435C227.19 379.435 226.858 379.541 226.593 379.754C226.332 379.967 226.137 380.25 226.01 380.602C225.885 380.952 225.822 381.335 225.822 381.753C225.822 382.173 225.885 382.558 226.01 382.908C226.137 383.257 226.332 383.537 226.593 383.747C226.858 383.957 227.19 384.062 227.591 384.062ZM232.162 385V376.273H233.436V379.516H233.513C233.587 379.379 233.693 379.222 233.832 379.043C233.972 378.864 234.165 378.707 234.412 378.574C234.659 378.438 234.986 378.369 235.392 378.369C235.92 378.369 236.392 378.503 236.807 378.77C237.222 379.037 237.547 379.422 237.783 379.925C238.021 380.428 238.141 381.033 238.141 381.74C238.141 382.447 238.023 383.054 237.787 383.56C237.551 384.062 237.227 384.45 236.815 384.723C236.403 384.993 235.933 385.128 235.405 385.128C235.007 385.128 234.682 385.061 234.429 384.928C234.179 384.794 233.983 384.638 233.841 384.459C233.699 384.28 233.589 384.121 233.513 383.982H233.406V385H232.162ZM233.411 381.727C233.411 382.187 233.477 382.591 233.611 382.938C233.744 383.284 233.938 383.555 234.19 383.751C234.443 383.945 234.753 384.041 235.119 384.041C235.5 384.041 235.818 383.94 236.074 383.739C236.33 383.534 236.523 383.257 236.653 382.908C236.787 382.558 236.854 382.165 236.854 381.727C236.854 381.295 236.788 380.908 236.658 380.564C236.53 380.22 236.337 379.949 236.078 379.75C235.822 379.551 235.503 379.452 235.119 379.452C234.75 379.452 234.438 379.547 234.182 379.737C233.929 379.928 233.737 380.193 233.607 380.534C233.476 380.875 233.411 381.273 233.411 381.727ZM241.476 385.145C241.061 385.145 240.686 385.068 240.351 384.915C240.016 384.759 239.75 384.533 239.554 384.237C239.361 383.942 239.265 383.58 239.265 383.151C239.265 382.781 239.336 382.477 239.478 382.239C239.62 382 239.811 381.811 240.053 381.672C240.294 381.533 240.564 381.428 240.863 381.357C241.161 381.286 241.465 381.232 241.775 381.195C242.167 381.149 242.485 381.112 242.729 381.084C242.973 381.053 243.151 381.003 243.262 380.935C243.373 380.866 243.428 380.756 243.428 380.602V380.572C243.428 380.2 243.323 379.912 243.113 379.707C242.905 379.503 242.596 379.401 242.184 379.401C241.755 379.401 241.417 379.496 241.169 379.686C240.925 379.874 240.756 380.082 240.662 380.312L239.465 380.04C239.607 379.642 239.814 379.321 240.087 379.077C240.363 378.83 240.679 378.651 241.037 378.54C241.395 378.426 241.772 378.369 242.167 378.369C242.428 378.369 242.705 378.401 242.998 378.463C243.293 378.523 243.569 378.634 243.824 378.795C244.083 378.957 244.294 379.189 244.459 379.49C244.624 379.788 244.706 380.176 244.706 380.653V385H243.462V384.105H243.411C243.328 384.27 243.205 384.432 243.04 384.591C242.875 384.75 242.664 384.882 242.405 384.987C242.147 385.092 241.837 385.145 241.476 385.145ZM241.753 384.122C242.105 384.122 242.407 384.053 242.657 383.913C242.909 383.774 243.101 383.592 243.232 383.368C243.365 383.141 243.432 382.898 243.432 382.639V381.795C243.387 381.841 243.299 381.884 243.168 381.923C243.04 381.96 242.894 381.993 242.729 382.021C242.564 382.047 242.404 382.071 242.248 382.094C242.091 382.114 241.961 382.131 241.855 382.145C241.608 382.176 241.382 382.229 241.178 382.303C240.976 382.376 240.814 382.483 240.692 382.622C240.573 382.759 240.513 382.94 240.513 383.168C240.513 383.483 240.63 383.722 240.863 383.884C241.096 384.043 241.392 384.122 241.753 384.122ZM247.678 376.273V385H246.403V376.273H247.678ZM253.407 385H252.009L255.15 376.273H256.671L259.812 385H258.414L255.947 377.858H255.879L253.407 385ZM253.641 381.582H258.175V382.69H253.641V381.582ZM261.072 385V376.273H264.183C264.862 376.273 265.424 376.396 265.87 376.643C266.316 376.891 266.65 377.229 266.872 377.658C267.093 378.084 267.204 378.564 267.204 379.098C267.204 379.635 267.092 380.118 266.868 380.547C266.646 380.973 266.311 381.311 265.862 381.561C265.416 381.808 264.855 381.932 264.179 381.932H262.039V380.815H264.059C264.488 380.815 264.836 380.741 265.103 380.594C265.37 380.443 265.566 380.239 265.691 379.98C265.816 379.722 265.879 379.428 265.879 379.098C265.879 378.768 265.816 378.476 265.691 378.22C265.566 377.964 265.369 377.764 265.099 377.619C264.832 377.474 264.48 377.402 264.042 377.402H262.389V385H261.072ZM268.075 376.273H269.57L271.85 380.24H271.944L274.224 376.273H275.719L272.553 381.574V385H271.241V381.574L268.075 376.273Z" fill="white"/>
<path d="M227.485 395.273V404H226.164V396.594H226.112L224.024 397.957V396.696L226.202 395.273H227.485ZM229.662 402.295V401.23L233.433 395.273H234.273V396.841H233.74L231.043 401.111V401.179H236.212V402.295H229.662ZM233.8 404V401.972L233.808 401.486V395.273H235.057V404H233.8ZM238.225 404.081C237.992 404.081 237.792 403.999 237.624 403.834C237.457 403.666 237.373 403.464 237.373 403.229C237.373 402.996 237.457 402.797 237.624 402.632C237.792 402.464 237.992 402.381 238.225 402.381C238.458 402.381 238.659 402.464 238.826 402.632C238.994 402.797 239.078 402.996 239.078 403.229C239.078 403.385 239.038 403.528 238.958 403.659C238.882 403.787 238.779 403.889 238.651 403.966C238.524 404.043 238.382 404.081 238.225 404.081ZM240.767 404V403.045L243.72 399.986C244.036 399.653 244.296 399.362 244.5 399.112C244.708 398.859 244.862 398.619 244.965 398.392C245.067 398.165 245.118 397.923 245.118 397.668C245.118 397.378 245.05 397.128 244.914 396.918C244.777 396.705 244.591 396.541 244.355 396.428C244.119 396.311 243.854 396.253 243.558 396.253C243.246 396.253 242.973 396.317 242.74 396.445C242.507 396.572 242.328 396.753 242.203 396.986C242.078 397.219 242.016 397.491 242.016 397.804H240.759C240.759 397.273 240.881 396.808 241.125 396.411C241.369 396.013 241.705 395.705 242.131 395.486C242.557 395.264 243.041 395.153 243.584 395.153C244.132 395.153 244.615 395.263 245.033 395.482C245.453 395.697 245.781 395.993 246.017 396.368C246.253 396.74 246.371 397.161 246.371 397.629C246.371 397.953 246.31 398.27 246.188 398.58C246.068 398.889 245.86 399.234 245.561 399.615C245.263 399.993 244.848 400.452 244.317 400.991L242.583 402.807V402.871H246.512V404H240.767ZM251.007 404.119C250.473 404.119 249.993 404.017 249.567 403.812C249.144 403.605 248.806 403.321 248.553 402.96C248.3 402.599 248.165 402.188 248.148 401.724H249.426C249.458 402.099 249.624 402.408 249.925 402.649C250.226 402.891 250.587 403.011 251.007 403.011C251.343 403.011 251.639 402.935 251.898 402.781C252.159 402.625 252.364 402.411 252.512 402.138C252.662 401.865 252.737 401.554 252.737 401.205C252.737 400.849 252.661 400.533 252.507 400.254C252.354 399.976 252.142 399.757 251.872 399.598C251.605 399.439 251.298 399.358 250.952 399.355C250.688 399.355 250.422 399.401 250.155 399.491C249.888 399.582 249.672 399.702 249.507 399.849L248.301 399.67L248.791 395.273H253.59V396.402H249.887L249.61 398.844H249.661C249.831 398.679 250.057 398.541 250.338 398.43C250.622 398.32 250.926 398.264 251.25 398.264C251.781 398.264 252.254 398.391 252.669 398.643C253.087 398.896 253.415 399.241 253.654 399.679C253.895 400.114 254.014 400.614 254.012 401.179C254.014 401.744 253.887 402.249 253.628 402.692C253.372 403.135 253.017 403.484 252.563 403.74C252.111 403.993 251.593 404.119 251.007 404.119ZM260.123 402.364V401.903C260.123 401.574 260.192 401.273 260.328 401C260.467 400.724 260.669 400.504 260.933 400.339C261.2 400.172 261.523 400.088 261.9 400.088C262.287 400.088 262.611 400.17 262.872 400.335C263.133 400.5 263.331 400.72 263.464 400.996C263.601 401.271 263.669 401.574 263.669 401.903V402.364C263.669 402.693 263.601 402.996 263.464 403.271C263.328 403.544 263.128 403.764 262.863 403.932C262.602 404.097 262.281 404.179 261.9 404.179C261.517 404.179 261.193 404.097 260.929 403.932C260.665 403.764 260.464 403.544 260.328 403.271C260.192 402.996 260.123 402.693 260.123 402.364ZM261.116 401.903V402.364C261.116 402.608 261.175 402.83 261.291 403.028C261.407 403.227 261.611 403.327 261.9 403.327C262.187 403.327 262.388 403.227 262.501 403.028C262.615 402.83 262.672 402.608 262.672 402.364V401.903C262.672 401.659 262.616 401.437 262.506 401.239C262.398 401.04 262.196 400.94 261.9 400.94C261.616 400.94 261.415 401.04 261.295 401.239C261.176 401.437 261.116 401.659 261.116 401.903ZM255.734 397.369V396.909C255.734 396.58 255.802 396.277 255.939 396.001C256.078 395.726 256.28 395.506 256.544 395.341C256.811 395.176 257.133 395.094 257.511 395.094C257.898 395.094 258.221 395.176 258.483 395.341C258.744 395.506 258.942 395.726 259.075 396.001C259.209 396.277 259.275 396.58 259.275 396.909V397.369C259.275 397.699 259.207 398.001 259.071 398.277C258.937 398.55 258.738 398.77 258.474 398.938C258.213 399.102 257.892 399.185 257.511 399.185C257.125 399.185 256.8 399.102 256.535 398.938C256.274 398.77 256.075 398.55 255.939 398.277C255.802 398.001 255.734 397.699 255.734 397.369ZM256.731 396.909V397.369C256.731 397.614 256.788 397.835 256.902 398.034C257.018 398.233 257.221 398.332 257.511 398.332C257.795 398.332 257.994 398.233 258.108 398.034C258.224 397.835 258.282 397.614 258.282 397.369V396.909C258.282 396.665 258.227 396.443 258.116 396.244C258.006 396.045 257.804 395.946 257.511 395.946C257.227 395.946 257.025 396.045 256.906 396.244C256.79 396.443 256.731 396.665 256.731 396.909ZM256.139 404L262.139 395.273H263.157L257.157 404H256.139Z" fill="#3BD971"/>
<rect x="336" y="365" width="152" height="50" rx="4" fill="white" fill-opacity="0.02"/>
<rect x="336.5" y="365.5" width="151" height="49" rx="3.5" stroke="white" stroke-opacity="0.05"/>
<path d="M358.701 385V376.273H361.812C362.488 376.273 363.049 376.389 363.495 376.622C363.944 376.855 364.279 377.178 364.501 377.589C364.722 377.999 364.833 378.472 364.833 379.009C364.833 379.543 364.721 380.013 364.496 380.419C364.275 380.822 363.94 381.136 363.491 381.361C363.045 381.585 362.484 381.697 361.808 381.697H359.451V380.564H361.688C362.114 380.564 362.461 380.503 362.728 380.381C362.998 380.259 363.195 380.081 363.32 379.848C363.445 379.615 363.508 379.335 363.508 379.009C363.508 378.679 363.444 378.393 363.316 378.152C363.191 377.911 362.994 377.726 362.724 377.598C362.457 377.467 362.106 377.402 361.671 377.402H360.018V385H358.701ZM363.009 381.062L365.165 385H363.665L361.552 381.062H363.009ZM366.333 385V378.455H367.607V385H366.333ZM366.977 377.445C366.755 377.445 366.565 377.371 366.406 377.223C366.249 377.072 366.171 376.893 366.171 376.686C366.171 376.476 366.249 376.297 366.406 376.149C366.565 375.999 366.755 375.923 366.977 375.923C367.198 375.923 367.387 375.999 367.543 376.149C367.702 376.297 367.782 376.476 367.782 376.686C367.782 376.893 367.702 377.072 367.543 377.223C367.387 377.371 367.198 377.445 366.977 377.445ZM374.226 380.053L373.071 380.257C373.023 380.109 372.946 379.969 372.841 379.835C372.739 379.702 372.6 379.592 372.424 379.507C372.248 379.422 372.027 379.379 371.763 379.379C371.402 379.379 371.101 379.46 370.86 379.622C370.618 379.781 370.498 379.987 370.498 380.24C370.498 380.459 370.578 380.635 370.74 380.768C370.902 380.902 371.164 381.011 371.525 381.097L372.564 381.335C373.167 381.474 373.615 381.689 373.911 381.979C374.206 382.268 374.354 382.645 374.354 383.108C374.354 383.5 374.24 383.849 374.013 384.156C373.789 384.46 373.475 384.699 373.071 384.872C372.671 385.045 372.206 385.132 371.678 385.132C370.945 385.132 370.347 384.976 369.884 384.663C369.421 384.348 369.137 383.901 369.032 383.321L370.263 383.134C370.34 383.455 370.498 383.697 370.736 383.862C370.975 384.024 371.286 384.105 371.669 384.105C372.087 384.105 372.421 384.018 372.671 383.845C372.921 383.669 373.046 383.455 373.046 383.202C373.046 382.997 372.969 382.825 372.816 382.686C372.665 382.547 372.434 382.442 372.121 382.371L371.013 382.128C370.402 381.989 369.951 381.767 369.658 381.463C369.368 381.159 369.223 380.774 369.223 380.308C369.223 379.922 369.331 379.584 369.547 379.294C369.763 379.004 370.061 378.778 370.442 378.616C370.823 378.452 371.259 378.369 371.75 378.369C372.458 378.369 373.015 378.523 373.421 378.83C373.827 379.134 374.096 379.541 374.226 380.053ZM376.927 382.78L376.918 381.224H377.14L379.748 378.455H381.273L378.299 381.608H378.099L376.927 382.78ZM375.755 385V376.273H377.029V385H375.755ZM379.888 385L377.545 381.889L378.423 380.999L381.452 385H379.888ZM388.368 385.132C387.754 385.132 387.218 384.991 386.761 384.71C386.304 384.429 385.949 384.036 385.696 383.53C385.443 383.024 385.316 382.433 385.316 381.757C385.316 381.078 385.443 380.484 385.696 379.976C385.949 379.467 386.304 379.072 386.761 378.791C387.218 378.51 387.754 378.369 388.368 378.369C388.981 378.369 389.517 378.51 389.974 378.791C390.431 379.072 390.787 379.467 391.039 379.976C391.292 380.484 391.419 381.078 391.419 381.757C391.419 382.433 391.292 383.024 391.039 383.53C390.787 384.036 390.431 384.429 389.974 384.71C389.517 384.991 388.981 385.132 388.368 385.132ZM388.372 384.062C388.77 384.062 389.099 383.957 389.36 383.747C389.622 383.537 389.815 383.257 389.94 382.908C390.068 382.558 390.132 382.173 390.132 381.753C390.132 381.335 390.068 380.952 389.94 380.602C389.815 380.25 389.622 379.967 389.36 379.754C389.099 379.541 388.77 379.435 388.372 379.435C387.971 379.435 387.639 379.541 387.375 379.754C387.113 379.967 386.919 380.25 386.791 380.602C386.666 380.952 386.603 381.335 386.603 381.753C386.603 382.173 386.666 382.558 386.791 382.908C386.919 383.257 387.113 383.537 387.375 383.747C387.639 383.957 387.971 384.062 388.372 384.062ZM395.956 378.455V379.477H392.257V378.455H395.956ZM393.271 385V377.696C393.271 377.287 393.361 376.947 393.54 376.678C393.719 376.405 393.956 376.202 394.251 376.068C394.547 375.932 394.868 375.864 395.214 375.864C395.47 375.864 395.689 375.885 395.871 375.928C396.053 375.967 396.188 376.004 396.276 376.038L395.977 377.07C395.918 377.053 395.841 377.033 395.747 377.01C395.653 376.984 395.54 376.972 395.406 376.972C395.097 376.972 394.875 377.048 394.741 377.202C394.611 377.355 394.545 377.577 394.545 377.866V385H393.271ZM403.724 385V376.273H405.041V383.866H408.996V385H403.724ZM410.396 385V378.455H411.67V385H410.396ZM411.039 377.445C410.817 377.445 410.627 377.371 410.468 377.223C410.312 377.072 410.234 376.893 410.234 376.686C410.234 376.476 410.312 376.297 410.468 376.149C410.627 375.999 410.817 375.923 411.039 375.923C411.261 375.923 411.45 375.999 411.606 376.149C411.765 376.297 411.844 376.476 411.844 376.686C411.844 376.893 411.765 377.072 411.606 377.223C411.45 377.371 411.261 377.445 411.039 377.445ZM417.803 387.455V383.982H417.726C417.65 384.121 417.539 384.28 417.394 384.459C417.252 384.638 417.056 384.794 416.806 384.928C416.556 385.061 416.232 385.128 415.834 385.128C415.306 385.128 414.834 384.993 414.419 384.723C414.007 384.45 413.684 384.062 413.448 383.56C413.215 383.054 413.098 382.447 413.098 381.74C413.098 381.033 413.216 380.428 413.452 379.925C413.691 379.422 414.017 379.037 414.432 378.77C414.847 378.503 415.317 378.369 415.843 378.369C416.249 378.369 416.576 378.438 416.823 378.574C417.073 378.707 417.266 378.864 417.402 379.043C417.542 379.222 417.65 379.379 417.726 379.516H417.833V378.455H419.077V387.455H417.803ZM416.115 384.041C416.482 384.041 416.792 383.945 417.044 383.751C417.3 383.555 417.493 383.284 417.624 382.938C417.757 382.591 417.824 382.187 417.824 381.727C417.824 381.273 417.759 380.875 417.628 380.534C417.498 380.193 417.306 379.928 417.053 379.737C416.8 379.547 416.488 379.452 416.115 379.452C415.732 379.452 415.412 379.551 415.157 379.75C414.901 379.949 414.708 380.22 414.577 380.564C414.449 380.908 414.385 381.295 414.385 381.727C414.385 382.165 414.451 382.558 414.581 382.908C414.712 383.257 414.905 383.534 415.161 383.739C415.419 383.94 415.738 384.041 416.115 384.041ZM424.936 382.286V378.455H426.215V385H424.962V383.866H424.894C424.743 384.216 424.502 384.507 424.169 384.74C423.84 384.97 423.429 385.085 422.938 385.085C422.517 385.085 422.145 384.993 421.821 384.808C421.5 384.621 421.248 384.344 421.063 383.977C420.881 383.611 420.79 383.158 420.79 382.618V378.455H422.064V382.464C422.064 382.911 422.188 383.266 422.435 383.53C422.682 383.794 423.003 383.926 423.398 383.926C423.637 383.926 423.874 383.866 424.11 383.747C424.348 383.628 424.546 383.447 424.702 383.206C424.861 382.964 424.939 382.658 424.936 382.286ZM427.927 385V378.455H429.201V385H427.927ZM428.57 377.445C428.349 377.445 428.158 377.371 427.999 377.223C427.843 377.072 427.765 376.893 427.765 376.686C427.765 376.476 427.843 376.297 427.999 376.149C428.158 375.999 428.349 375.923 428.57 375.923C428.792 375.923 428.981 375.999 429.137 376.149C429.296 376.297 429.376 376.476 429.376 376.686C429.376 376.893 429.296 377.072 429.137 377.223C428.981 377.371 428.792 377.445 428.57 377.445ZM433.365 385.128C432.837 385.128 432.365 384.993 431.951 384.723C431.539 384.45 431.215 384.062 430.979 383.56C430.746 383.054 430.63 382.447 430.63 381.74C430.63 381.033 430.748 380.428 430.983 379.925C431.222 379.422 431.549 379.037 431.963 378.77C432.378 378.503 432.848 378.369 433.374 378.369C433.78 378.369 434.107 378.438 434.354 378.574C434.604 378.707 434.797 378.864 434.934 379.043C435.073 379.222 435.181 379.379 435.257 379.516H435.334V376.273H436.608V385H435.364V383.982H435.257C435.181 384.121 435.07 384.28 434.925 384.459C434.783 384.638 434.587 384.794 434.337 384.928C434.087 385.061 433.763 385.128 433.365 385.128ZM433.647 384.041C434.013 384.041 434.323 383.945 434.576 383.751C434.831 383.555 435.025 383.284 435.155 382.938C435.289 382.591 435.355 382.187 435.355 381.727C435.355 381.273 435.29 380.875 435.159 380.534C435.029 380.193 434.837 379.928 434.584 379.737C434.331 379.547 434.019 379.452 433.647 379.452C433.263 379.452 432.944 379.551 432.688 379.75C432.432 379.949 432.239 380.22 432.108 380.564C431.98 380.908 431.917 381.295 431.917 381.727C431.917 382.165 431.982 382.558 432.113 382.908C432.243 383.257 432.436 383.534 432.692 383.739C432.951 383.94 433.269 384.041 433.647 384.041ZM440.332 385.145C439.917 385.145 439.542 385.068 439.207 384.915C438.871 384.759 438.606 384.533 438.41 384.237C438.217 383.942 438.12 383.58 438.12 383.151C438.12 382.781 438.191 382.477 438.333 382.239C438.475 382 438.667 381.811 438.908 381.672C439.15 381.533 439.42 381.428 439.718 381.357C440.016 381.286 440.32 381.232 440.63 381.195C441.022 381.149 441.34 381.112 441.585 381.084C441.829 381.053 442.006 381.003 442.117 380.935C442.228 380.866 442.283 380.756 442.283 380.602V380.572C442.283 380.2 442.178 379.912 441.968 379.707C441.761 379.503 441.451 379.401 441.039 379.401C440.61 379.401 440.272 379.496 440.025 379.686C439.781 379.874 439.612 380.082 439.518 380.312L438.32 380.04C438.462 379.642 438.67 379.321 438.942 379.077C439.218 378.83 439.535 378.651 439.893 378.54C440.251 378.426 440.627 378.369 441.022 378.369C441.283 378.369 441.56 378.401 441.853 378.463C442.148 378.523 442.424 378.634 442.68 378.795C442.938 378.957 443.15 379.189 443.315 379.49C443.479 379.788 443.562 380.176 443.562 380.653V385H442.317V384.105H442.266C442.184 384.27 442.06 384.432 441.896 384.591C441.731 384.75 441.519 384.882 441.261 384.987C441.002 385.092 440.692 385.145 440.332 385.145ZM440.609 384.122C440.961 384.122 441.262 384.053 441.512 383.913C441.765 383.774 441.957 383.592 442.087 383.368C442.221 383.141 442.288 382.898 442.288 382.639V381.795C442.242 381.841 442.154 381.884 442.023 381.923C441.896 381.96 441.749 381.993 441.585 382.021C441.42 382.047 441.259 382.071 441.103 382.094C440.947 382.114 440.816 382.131 440.711 382.145C440.464 382.176 440.238 382.229 440.033 382.303C439.832 382.376 439.67 382.483 439.548 382.622C439.428 382.759 439.369 382.94 439.369 383.168C439.369 383.483 439.485 383.722 439.718 383.884C439.951 384.043 440.248 384.122 440.609 384.122ZM448.314 378.455V379.477H444.739V378.455H448.314ZM445.698 376.886H446.972V383.078C446.972 383.325 447.009 383.511 447.083 383.636C447.157 383.759 447.252 383.842 447.368 383.888C447.488 383.93 447.617 383.952 447.756 383.952C447.858 383.952 447.948 383.945 448.025 383.93C448.101 383.916 448.161 383.905 448.203 383.896L448.434 384.949C448.36 384.977 448.255 385.006 448.118 385.034C447.982 385.065 447.811 385.082 447.607 385.085C447.272 385.091 446.959 385.031 446.669 384.906C446.38 384.781 446.145 384.588 445.966 384.327C445.787 384.065 445.698 383.737 445.698 383.342V376.886ZM449.724 385V378.455H450.998V385H449.724ZM450.367 377.445C450.146 377.445 449.955 377.371 449.796 377.223C449.64 377.072 449.562 376.893 449.562 376.686C449.562 376.476 449.64 376.297 449.796 376.149C449.955 375.999 450.146 375.923 450.367 375.923C450.589 375.923 450.778 375.999 450.934 376.149C451.093 376.297 451.173 376.476 451.173 376.686C451.173 376.893 451.093 377.072 450.934 377.223C450.778 377.371 450.589 377.445 450.367 377.445ZM455.469 385.132C454.855 385.132 454.32 384.991 453.863 384.71C453.405 384.429 453.05 384.036 452.797 383.53C452.544 383.024 452.418 382.433 452.418 381.757C452.418 381.078 452.544 380.484 452.797 379.976C453.05 379.467 453.405 379.072 453.863 378.791C454.32 378.51 454.855 378.369 455.469 378.369C456.083 378.369 456.618 378.51 457.076 378.791C457.533 379.072 457.888 379.467 458.141 379.976C458.394 380.484 458.52 381.078 458.52 381.757C458.52 382.433 458.394 383.024 458.141 383.53C457.888 384.036 457.533 384.429 457.076 384.71C456.618 384.991 456.083 385.132 455.469 385.132ZM455.473 384.062C455.871 384.062 456.201 383.957 456.462 383.747C456.723 383.537 456.917 383.257 457.042 382.908C457.169 382.558 457.233 382.173 457.233 381.753C457.233 381.335 457.169 380.952 457.042 380.602C456.917 380.25 456.723 379.967 456.462 379.754C456.201 379.541 455.871 379.435 455.473 379.435C455.073 379.435 454.74 379.541 454.476 379.754C454.215 379.967 454.02 380.25 453.892 380.602C453.767 380.952 453.705 381.335 453.705 381.753C453.705 382.173 453.767 382.558 453.892 382.908C454.02 383.257 454.215 383.537 454.476 383.747C454.74 383.957 455.073 384.062 455.473 384.062ZM461.217 381.114V385H459.942V378.455H461.165V379.52H461.246C461.397 379.173 461.633 378.895 461.954 378.685C462.278 378.474 462.685 378.369 463.177 378.369C463.623 378.369 464.013 378.463 464.349 378.651C464.684 378.835 464.944 379.111 465.129 379.477C465.313 379.844 465.406 380.297 465.406 380.837V385H464.131V380.99C464.131 380.516 464.008 380.145 463.761 379.878C463.513 379.608 463.174 379.473 462.742 379.473C462.447 379.473 462.184 379.537 461.954 379.665C461.727 379.793 461.546 379.98 461.413 380.227C461.282 380.472 461.217 380.767 461.217 381.114Z" fill="white"/>
<path d="M387.085 395.273L389.514 402.381H389.612L392.041 395.273H393.464L390.324 404H388.802L385.662 395.273H387.085ZM396.787 404.132C396.142 404.132 395.587 403.994 395.121 403.719C394.658 403.44 394.3 403.05 394.047 402.547C393.797 402.041 393.672 401.449 393.672 400.77C393.672 400.099 393.797 399.509 394.047 398.997C394.3 398.486 394.652 398.087 395.104 397.8C395.558 397.513 396.089 397.369 396.697 397.369C397.067 397.369 397.425 397.43 397.771 397.553C398.118 397.675 398.429 397.866 398.705 398.128C398.98 398.389 399.197 398.729 399.357 399.146C399.516 399.561 399.595 400.065 399.595 400.659V401.111H394.392V400.156H398.347C398.347 399.821 398.278 399.524 398.142 399.266C398.006 399.004 397.814 398.798 397.567 398.648C397.322 398.497 397.036 398.422 396.706 398.422C396.348 398.422 396.036 398.51 395.768 398.686C395.504 398.859 395.3 399.087 395.155 399.368C395.013 399.646 394.942 399.949 394.942 400.276V401.021C394.942 401.459 395.018 401.831 395.172 402.138C395.328 402.445 395.545 402.679 395.824 402.841C396.102 403 396.428 403.08 396.8 403.08C397.041 403.08 397.261 403.045 397.46 402.977C397.659 402.906 397.831 402.801 397.976 402.662C398.121 402.523 398.232 402.351 398.308 402.146L399.514 402.364C399.418 402.719 399.244 403.03 398.994 403.297C398.747 403.561 398.436 403.767 398.061 403.915C397.689 404.06 397.264 404.132 396.787 404.132ZM401.009 404V397.455H402.24V398.494H402.309C402.428 398.142 402.638 397.865 402.939 397.663C403.243 397.459 403.587 397.357 403.971 397.357C404.05 397.357 404.144 397.359 404.252 397.365C404.363 397.371 404.449 397.378 404.512 397.386V398.605C404.461 398.591 404.37 398.575 404.239 398.558C404.108 398.538 403.978 398.528 403.847 398.528C403.546 398.528 403.277 398.592 403.042 398.72C402.809 398.845 402.624 399.02 402.488 399.244C402.351 399.466 402.283 399.719 402.283 400.003V404H401.009ZM406.619 406.455C406.429 406.455 406.255 406.439 406.099 406.408C405.943 406.379 405.826 406.348 405.75 406.314L406.056 405.27C406.289 405.332 406.497 405.359 406.679 405.351C406.86 405.342 407.021 405.274 407.16 405.146C407.302 405.018 407.427 404.81 407.535 404.52L407.693 404.085L405.298 397.455H406.662L408.319 402.534H408.387L410.045 397.455H411.413L408.716 404.874C408.591 405.214 408.431 405.503 408.238 405.739C408.045 405.977 407.815 406.156 407.548 406.276C407.281 406.395 406.971 406.455 406.619 406.455ZM415.888 404V395.273H417.205V402.866H421.16V404H415.888ZM425.317 404.132C424.703 404.132 424.168 403.991 423.71 403.71C423.253 403.429 422.898 403.036 422.645 402.53C422.392 402.024 422.266 401.433 422.266 400.757C422.266 400.078 422.392 399.484 422.645 398.976C422.898 398.467 423.253 398.072 423.71 397.791C424.168 397.51 424.703 397.369 425.317 397.369C425.93 397.369 426.466 397.51 426.923 397.791C427.381 398.072 427.736 398.467 427.989 398.976C428.241 399.484 428.368 400.078 428.368 400.757C428.368 401.433 428.241 402.024 427.989 402.53C427.736 403.036 427.381 403.429 426.923 403.71C426.466 403.991 425.93 404.132 425.317 404.132ZM425.321 403.062C425.719 403.062 426.048 402.957 426.31 402.747C426.571 402.537 426.764 402.257 426.889 401.908C427.017 401.558 427.081 401.173 427.081 400.753C427.081 400.335 427.017 399.952 426.889 399.602C426.764 399.25 426.571 398.967 426.31 398.754C426.048 398.541 425.719 398.435 425.321 398.435C424.92 398.435 424.588 398.541 424.324 398.754C424.063 398.967 423.868 399.25 423.74 399.602C423.615 399.952 423.553 400.335 423.553 400.753C423.553 401.173 423.615 401.558 423.74 401.908C423.868 402.257 424.063 402.537 424.324 402.747C424.588 402.957 424.92 403.062 425.321 403.062ZM431.01 404L429.084 397.455H430.401L431.683 402.261H431.747L433.034 397.455H434.351L435.629 402.24H435.693L436.967 397.455H438.284L436.362 404H435.062L433.733 399.274H433.635L432.305 404H431.01Z" fill="#3BD971"/>
<defs>
<filter id="filter0_f_1316_9602" x="24.0171" y="50.0188" width="460.652" height="278.863" filterUnits="userSpaceOnUse" color-interpolation-filters="sRGB">
<feFlood flood-opacity="0" result="BackgroundImageFix"/>
<feBlend mode="normal" in="SourceGraphic" in2="BackgroundImageFix" result="shape"/>
<feGaussianBlur stdDeviation="20" result="effect1_foregroundBlur_1316_9602"/>
</filter>
</defs>
</svg>
