<svg width="16" height="16" viewBox="0 0 16 16" fill="none" xmlns="http://www.w3.org/2000/svg">
<path d="M3.47472 6.44444C3.28238 6.64258 3.2871 6.95913 3.48525 7.15146C3.6834 7.3438 3.99994 7.33908 4.19228 7.14093L3.47472 6.44444ZM8.00016 2.5L8.35894 2.15175C8.26478 2.05474 8.13535 2 8.00016 2C7.86497 2 7.73554 2.05474 7.64138 2.15175L8.00016 2.5ZM11.808 7.14093C12.0004 7.33908 12.3169 7.3438 12.5151 7.15146C12.7132 6.95913 12.7179 6.64258 12.5256 6.44444L11.808 7.14093ZM7.50016 13.5C7.50016 13.7761 7.72402 14 8.00016 14C8.27631 14 8.50016 13.7761 8.50016 13.5L7.50016 13.5ZM4.19228 7.14093L8.35894 2.84825L7.64138 2.15175L3.47472 6.44444L4.19228 7.14093ZM7.64138 2.84825L11.808 7.14093L12.5256 6.44444L8.35894 2.15175L7.64138 2.84825ZM7.50016 2.5L7.50016 13.5L8.50016 13.5L8.50016 2.5L7.50016 2.5Z" fill="#3CDF73"/>
</svg>
