<svg width="281" height="48" viewBox="0 0 281 48" fill="none" xmlns="http://www.w3.org/2000/svg">
<path fill-rule="evenodd" clip-rule="evenodd" d="M10.2633 4.31744C8.54649 5.51787 6.99405 6.93717 5.64639 8.53488C11.1536 8.0236 18.1502 8.85846 26.2733 12.92C34.9476 17.2571 41.9326 17.4037 46.7938 16.466C46.3526 15.1305 45.7973 13.847 45.1396 12.6269C39.5748 13.2138 32.4408 12.4369 24.1267 8.27998C18.8472 5.64021 14.1933 4.55281 10.2633 4.31744ZM41.8889 7.99998C37.4944 3.09 31.1081 0 24 0C21.9126 0 19.8872 0.266529 17.9564 0.767377C20.5715 1.4809 23.3495 2.52478 26.2733 3.98672C32.3604 7.03024 37.6157 8.01019 41.8889 7.99998ZM47.8331 21.1537C41.9603 22.3134 33.8505 22.0752 24.1267 17.2133C15.036 12.6679 7.80052 12.7251 2.92068 13.8096C2.6688 13.8655 2.42285 13.9243 2.18284 13.9855C1.54395 15.375 1.03396 16.8361 0.668043 18.3534C1.05886 18.249 1.46272 18.1497 1.87939 18.0571C7.79949 16.7415 16.1641 16.7987 26.2733 21.8533C35.3641 26.3987 42.5995 26.3414 47.4794 25.257C47.6466 25.2199 47.8114 25.1815 47.9734 25.1419C47.9911 24.7635 48 24.3828 48 24C48 23.037 47.9434 22.0872 47.8331 21.1537ZM47.1898 30.2068C41.374 31.2235 33.5004 30.8333 24.1267 26.1465C15.036 21.6012 7.80052 21.6584 2.92068 22.7429C1.8375 22.9835 0.863088 23.2766 0.003516 23.5861C0.0011724 23.7237 0 23.8617 0 24C0 37.2548 10.7452 48 24 48C35.1085 48 44.4544 40.4531 47.1898 30.2068Z" fill="url(#paint0_linear_1316_9396)"/>
<path d="M69.9176 32V14.5455H76.1392C77.4972 14.5455 78.6222 14.7926 79.5142 15.2869C80.4063 15.7812 81.0739 16.4574 81.517 17.3153C81.9602 18.1676 82.1818 19.1278 82.1818 20.196C82.1818 21.2699 81.9574 22.2358 81.5085 23.0938C81.0653 23.946 80.3949 24.6222 79.4972 25.1222C78.6051 25.6165 77.483 25.8636 76.1307 25.8636H71.8523V23.6307H75.892C76.75 23.6307 77.446 23.483 77.9801 23.1875C78.5142 22.8864 78.9062 22.4773 79.1562 21.9602C79.4062 21.4432 79.5312 20.8551 79.5312 20.196C79.5312 19.5369 79.4062 18.9517 79.1562 18.4403C78.9062 17.929 78.5114 17.5284 77.9716 17.2386C77.4375 16.9489 76.733 16.804 75.858 16.804H72.5511V32H69.9176ZM85.0646 32V18.9091H87.5277V20.9886H87.6641C87.9027 20.2841 88.3232 19.7301 88.9254 19.3267C89.5334 18.9176 90.2209 18.7131 90.9879 18.7131C91.147 18.7131 91.3345 18.7187 91.5504 18.7301C91.772 18.7415 91.9453 18.7557 92.0703 18.7727V21.2102C91.968 21.1818 91.7862 21.1506 91.5249 21.1165C91.2635 21.0767 91.0021 21.0568 90.7408 21.0568C90.1385 21.0568 89.6016 21.1847 89.13 21.4403C88.6641 21.6903 88.2947 22.0398 88.022 22.4886C87.7493 22.9318 87.6129 23.4375 87.6129 24.0057V32H85.0646ZM99.321 32.2642C98.0938 32.2642 97.0227 31.983 96.108 31.4205C95.1932 30.858 94.483 30.071 93.9773 29.0597C93.4716 28.0483 93.2188 26.8665 93.2188 25.5142C93.2188 24.1562 93.4716 22.9687 93.9773 21.9517C94.483 20.9347 95.1932 20.1449 96.108 19.5824C97.0227 19.0199 98.0938 18.7386 99.321 18.7386C100.548 18.7386 101.619 19.0199 102.534 19.5824C103.449 20.1449 104.159 20.9347 104.665 21.9517C105.17 22.9687 105.423 24.1562 105.423 25.5142C105.423 26.8665 105.17 28.0483 104.665 29.0597C104.159 30.071 103.449 30.858 102.534 31.4205C101.619 31.983 100.548 32.2642 99.321 32.2642ZM99.3295 30.125C100.125 30.125 100.784 29.9148 101.307 29.4943C101.83 29.0739 102.216 28.5142 102.466 27.8153C102.722 27.1165 102.849 26.3466 102.849 25.5057C102.849 24.6705 102.722 23.9034 102.466 23.2045C102.216 22.5 101.83 21.9347 101.307 21.5085C100.784 21.0824 100.125 20.8693 99.3295 20.8693C98.5284 20.8693 97.8636 21.0824 97.3352 21.5085C96.8125 21.9347 96.4233 22.5 96.1676 23.2045C95.9176 23.9034 95.7926 24.6705 95.7926 25.5057C95.7926 26.3466 95.9176 27.1165 96.1676 27.8153C96.4233 28.5142 96.8125 29.0739 97.3352 29.4943C97.8636 29.9148 98.5284 30.125 99.3295 30.125ZM108.268 18.9091H110.816V32.8523C110.816 33.7273 110.657 34.4659 110.339 35.0682C110.026 35.6705 109.56 36.1278 108.941 36.4403C108.327 36.7528 107.569 36.9091 106.665 36.9091C106.575 36.9091 106.489 36.9091 106.41 36.9091C106.325 36.9091 106.237 36.9063 106.146 36.9006V34.7102C106.225 34.7102 106.296 34.7102 106.359 34.7102C106.415 34.7102 106.481 34.7102 106.555 34.7102C107.157 34.7102 107.592 34.5483 107.859 34.2244C108.131 33.9063 108.268 33.4432 108.268 32.8352V18.9091ZM109.529 16.8892C109.086 16.8892 108.705 16.7415 108.387 16.446C108.075 16.1449 107.918 15.7869 107.918 15.3722C107.918 14.9517 108.075 14.5937 108.387 14.2983C108.705 13.9972 109.086 13.8466 109.529 13.8466C109.972 13.8466 110.35 13.9972 110.663 14.2983C110.981 14.5937 111.14 14.9517 111.14 15.3722C111.14 15.7869 110.981 16.1449 110.663 16.446C110.35 16.7415 109.972 16.8892 109.529 16.8892ZM119.886 32.2642C118.597 32.2642 117.486 31.9886 116.554 31.4375C115.628 30.8807 114.912 30.0994 114.406 29.0938C113.906 28.0824 113.656 26.8977 113.656 25.5398C113.656 24.1989 113.906 23.017 114.406 21.9943C114.912 20.9716 115.616 20.1733 116.52 19.5994C117.429 19.0256 118.491 18.7386 119.707 18.7386C120.446 18.7386 121.162 18.8608 121.855 19.1051C122.548 19.3494 123.17 19.733 123.722 20.2557C124.273 20.7784 124.707 21.4574 125.026 22.2926C125.344 23.1222 125.503 24.1307 125.503 25.3182V26.2216H115.097V24.3125H123.006C123.006 23.642 122.869 23.0483 122.597 22.5312C122.324 22.0085 121.94 21.5966 121.446 21.2955C120.957 20.9943 120.384 20.8438 119.724 20.8438C119.009 20.8438 118.384 21.0199 117.849 21.3722C117.321 21.7187 116.912 22.1733 116.622 22.7358C116.338 23.2926 116.196 23.8977 116.196 24.5511V26.0426C116.196 26.9176 116.349 27.6619 116.656 28.2756C116.969 28.8892 117.403 29.358 117.96 29.6818C118.517 30 119.168 30.1591 119.912 30.1591C120.395 30.1591 120.835 30.0909 121.233 29.9545C121.631 29.8125 121.974 29.6023 122.264 29.3239C122.554 29.0455 122.776 28.7017 122.929 28.2926L125.341 28.7273C125.148 29.4375 124.801 30.0597 124.301 30.5938C123.807 31.1222 123.185 31.5341 122.435 31.8295C121.69 32.1193 120.841 32.2642 119.886 32.2642ZM133.844 32.2642C132.577 32.2642 131.487 31.9773 130.572 31.4034C129.663 30.8239 128.964 30.0256 128.475 29.0085C127.987 27.9915 127.742 26.8267 127.742 25.5142C127.742 24.1847 127.992 23.0114 128.492 21.9943C128.992 20.9716 129.697 20.1733 130.606 19.5994C131.515 19.0256 132.586 18.7386 133.819 18.7386C134.813 18.7386 135.7 18.9233 136.478 19.2926C137.256 19.6562 137.884 20.1676 138.362 20.8267C138.844 21.4858 139.131 22.2557 139.222 23.1364H136.742C136.606 22.5227 136.293 21.9943 135.805 21.5511C135.322 21.108 134.674 20.8864 133.862 20.8864C133.151 20.8864 132.529 21.0739 131.995 21.4489C131.467 21.8182 131.055 22.3466 130.759 23.0341C130.464 23.7159 130.316 24.5227 130.316 25.4545C130.316 26.4091 130.461 27.233 130.751 27.9261C131.04 28.6193 131.45 29.1562 131.978 29.5369C132.512 29.9176 133.14 30.108 133.862 30.108C134.344 30.108 134.782 30.0199 135.174 29.8438C135.572 29.6619 135.904 29.4034 136.171 29.0682C136.444 28.733 136.634 28.3295 136.742 27.858H139.222C139.131 28.7045 138.856 29.4602 138.396 30.125C137.935 30.7898 137.319 31.3125 136.546 31.6932C135.779 32.0739 134.879 32.2642 133.844 32.2642ZM148.058 18.9091V20.9545H140.908V18.9091H148.058ZM142.825 15.7727H145.374V28.1562C145.374 28.6506 145.447 29.0227 145.595 29.2727C145.743 29.517 145.933 29.6847 146.166 29.7756C146.405 29.8608 146.663 29.9034 146.942 29.9034C147.146 29.9034 147.325 29.8892 147.479 29.8608C147.632 29.8324 147.751 29.8097 147.837 29.7926L148.297 31.8977C148.149 31.9545 147.939 32.0114 147.666 32.0682C147.393 32.1307 147.053 32.1648 146.643 32.1705C145.973 32.1818 145.348 32.0625 144.768 31.8125C144.189 31.5625 143.72 31.1761 143.362 30.6534C143.004 30.1307 142.825 29.4744 142.825 28.6847V15.7727ZM150.877 32V18.9091H153.425V32H150.877ZM152.164 16.8892C151.721 16.8892 151.34 16.7415 151.022 16.446C150.71 16.1449 150.553 15.7869 150.553 15.3722C150.553 14.9517 150.71 14.5937 151.022 14.2983C151.34 13.9972 151.721 13.8466 152.164 13.8466C152.607 13.8466 152.985 13.9972 153.298 14.2983C153.616 14.5937 153.775 14.9517 153.775 15.3722C153.775 15.7869 153.616 16.1449 153.298 16.446C152.985 16.7415 152.607 16.8892 152.164 16.8892ZM162.368 32.2642C161.141 32.2642 160.07 31.983 159.155 31.4205C158.24 30.858 157.53 30.071 157.024 29.0597C156.518 28.0483 156.266 26.8665 156.266 25.5142C156.266 24.1562 156.518 22.9687 157.024 21.9517C157.53 20.9347 158.24 20.1449 159.155 19.5824C160.07 19.0199 161.141 18.7386 162.368 18.7386C163.595 18.7386 164.666 19.0199 165.581 19.5824C166.496 20.1449 167.206 20.9347 167.712 21.9517C168.217 22.9687 168.47 24.1562 168.47 25.5142C168.47 26.8665 168.217 28.0483 167.712 29.0597C167.206 30.071 166.496 30.858 165.581 31.4205C164.666 31.983 163.595 32.2642 162.368 32.2642ZM162.376 30.125C163.172 30.125 163.831 29.9148 164.354 29.4943C164.876 29.0739 165.263 28.5142 165.513 27.8153C165.768 27.1165 165.896 26.3466 165.896 25.5057C165.896 24.6705 165.768 23.9034 165.513 23.2045C165.263 22.5 164.876 21.9347 164.354 21.5085C163.831 21.0824 163.172 20.8693 162.376 20.8693C161.575 20.8693 160.911 21.0824 160.382 21.5085C159.859 21.9347 159.47 22.5 159.214 23.2045C158.964 23.9034 158.839 24.6705 158.839 25.5057C158.839 26.3466 158.964 27.1165 159.214 27.8153C159.47 28.5142 159.859 29.0739 160.382 29.4943C160.911 29.9148 161.575 30.125 162.376 30.125ZM173.863 24.2273V32H171.315V18.9091H173.761V21.0398H173.923C174.224 20.3466 174.695 19.7898 175.337 19.3693C175.985 18.9489 176.8 18.7386 177.783 18.7386C178.675 18.7386 179.457 18.9261 180.127 19.3011C180.798 19.6705 181.317 20.2216 181.687 20.9545C182.056 21.6875 182.241 22.5937 182.241 23.6733V32H179.692V23.9801C179.692 23.0312 179.445 22.2898 178.951 21.7557C178.457 21.2159 177.778 20.946 176.914 20.946C176.323 20.946 175.798 21.0739 175.337 21.3295C174.883 21.5852 174.522 21.9602 174.255 22.4545C173.994 22.9432 173.863 23.5341 173.863 24.2273ZM192.214 32V14.5455H203.038V16.8125H194.848V22.1307H202.263V24.3892H194.848V32H192.214ZM206.072 32V18.9091H208.621V32H206.072ZM207.359 16.8892C206.916 16.8892 206.536 16.7415 206.217 16.446C205.905 16.1449 205.749 15.7869 205.749 15.3722C205.749 14.9517 205.905 14.5937 206.217 14.2983C206.536 13.9972 206.916 13.8466 207.359 13.8466C207.803 13.8466 208.18 13.9972 208.493 14.2983C208.811 14.5937 208.97 14.9517 208.97 15.3722C208.97 15.7869 208.811 16.1449 208.493 16.446C208.18 16.7415 207.803 16.8892 207.359 16.8892ZM214.597 24.2273V32H212.049V18.9091H214.495V21.0398H214.657C214.958 20.3466 215.43 19.7898 216.072 19.3693C216.719 18.9489 217.535 18.7386 218.518 18.7386C219.41 18.7386 220.191 18.9261 220.862 19.3011C221.532 19.6705 222.052 20.2216 222.421 20.9545C222.79 21.6875 222.975 22.5937 222.975 23.6733V32H220.427V23.9801C220.427 23.0312 220.18 22.2898 219.685 21.7557C219.191 21.2159 218.512 20.946 217.648 20.946C217.058 20.946 216.532 21.0739 216.072 21.3295C215.617 21.5852 215.256 21.9602 214.989 22.4545C214.728 22.9432 214.597 23.5341 214.597 24.2273ZM230.202 32.2898C229.373 32.2898 228.623 32.1364 227.952 31.8295C227.282 31.517 226.751 31.0653 226.359 30.4744C225.972 29.8835 225.779 29.1591 225.779 28.3011C225.779 27.5625 225.921 26.9545 226.205 26.4773C226.489 26 226.873 25.6222 227.356 25.3438C227.839 25.0653 228.379 24.8551 228.975 24.7131C229.572 24.571 230.18 24.4631 230.799 24.3892C231.583 24.2983 232.219 24.2244 232.708 24.1676C233.197 24.1051 233.552 24.0057 233.773 23.8693C233.995 23.733 234.106 23.5114 234.106 23.2045V23.1449C234.106 22.4006 233.896 21.8239 233.475 21.4148C233.06 21.0057 232.441 20.8011 231.617 20.8011C230.759 20.8011 230.083 20.9915 229.589 21.3722C229.1 21.7472 228.762 22.1648 228.575 22.625L226.18 22.0795C226.464 21.2841 226.879 20.642 227.424 20.1534C227.975 19.6591 228.609 19.3011 229.325 19.0795C230.04 18.8523 230.793 18.7386 231.583 18.7386C232.106 18.7386 232.66 18.8011 233.245 18.9261C233.836 19.0455 234.387 19.267 234.898 19.5909C235.415 19.9148 235.839 20.3778 236.168 20.9801C236.498 21.5767 236.663 22.3523 236.663 23.3068V32H234.174V30.2102H234.072C233.907 30.5398 233.66 30.8636 233.33 31.1818C233.001 31.5 232.577 31.7642 232.06 31.9744C231.543 32.1847 230.924 32.2898 230.202 32.2898ZM230.756 30.2443C231.461 30.2443 232.063 30.1051 232.563 29.8267C233.069 29.5483 233.452 29.1847 233.714 28.7358C233.981 28.2812 234.114 27.7955 234.114 27.2784V25.5909C234.023 25.6818 233.847 25.767 233.586 25.8466C233.33 25.9205 233.038 25.9858 232.708 26.0426C232.379 26.0937 232.058 26.142 231.745 26.1875C231.433 26.2273 231.171 26.2614 230.961 26.2898C230.467 26.3523 230.015 26.4574 229.606 26.6051C229.202 26.7528 228.879 26.9659 228.634 27.2443C228.396 27.517 228.276 27.8807 228.276 28.3352C228.276 28.9659 228.509 29.4432 228.975 29.767C229.441 30.0852 230.035 30.2443 230.756 30.2443ZM242.605 24.2273V32H240.057V18.9091H242.503V21.0398H242.665C242.966 20.3466 243.438 19.7898 244.08 19.3693C244.727 18.9489 245.543 18.7386 246.526 18.7386C247.418 18.7386 248.199 18.9261 248.869 19.3011C249.54 19.6705 250.06 20.2216 250.429 20.9545C250.798 21.6875 250.983 22.5937 250.983 23.6733V32H248.435V23.9801C248.435 23.0312 248.188 22.2898 247.693 21.7557C247.199 21.2159 246.52 20.946 245.656 20.946C245.065 20.946 244.54 21.0739 244.08 21.3295C243.625 21.5852 243.264 21.9602 242.997 22.4545C242.736 22.9432 242.605 23.5341 242.605 24.2273ZM259.915 32.2642C258.648 32.2642 257.557 31.9773 256.642 31.4034C255.733 30.8239 255.034 30.0256 254.545 29.0085C254.057 27.9915 253.812 26.8267 253.812 25.5142C253.812 24.1847 254.062 23.0114 254.562 21.9943C255.062 20.9716 255.767 20.1733 256.676 19.5994C257.585 19.0256 258.656 18.7386 259.889 18.7386C260.884 18.7386 261.77 18.9233 262.548 19.2926C263.327 19.6562 263.955 20.1676 264.432 20.8267C264.915 21.4858 265.202 22.2557 265.293 23.1364H262.812C262.676 22.5227 262.364 21.9943 261.875 21.5511C261.392 21.108 260.744 20.8864 259.932 20.8864C259.222 20.8864 258.599 21.0739 258.065 21.4489C257.537 21.8182 257.125 22.3466 256.83 23.0341C256.534 23.7159 256.386 24.5227 256.386 25.4545C256.386 26.4091 256.531 27.233 256.821 27.9261C257.111 28.6193 257.52 29.1562 258.048 29.5369C258.582 29.9176 259.21 30.108 259.932 30.108C260.415 30.108 260.852 30.0199 261.244 29.8438C261.642 29.6619 261.974 29.4034 262.241 29.0682C262.514 28.733 262.705 28.3295 262.812 27.858H265.293C265.202 28.7045 264.926 29.4602 264.466 30.125C264.006 30.7898 263.389 31.3125 262.616 31.6932C261.849 32.0739 260.949 32.2642 259.915 32.2642ZM273.66 32.2642C272.37 32.2642 271.259 31.9886 270.327 31.4375C269.401 30.8807 268.685 30.0994 268.18 29.0938C267.68 28.0824 267.43 26.8977 267.43 25.5398C267.43 24.1989 267.68 23.017 268.18 21.9943C268.685 20.9716 269.39 20.1733 270.293 19.5994C271.202 19.0256 272.265 18.7386 273.481 18.7386C274.219 18.7386 274.935 18.8608 275.629 19.1051C276.322 19.3494 276.944 19.733 277.495 20.2557C278.046 20.7784 278.481 21.4574 278.799 22.2926C279.117 23.1222 279.276 24.1307 279.276 25.3182V26.2216H268.87V24.3125H276.779C276.779 23.642 276.643 23.0483 276.37 22.5312C276.097 22.0085 275.714 21.5966 275.219 21.2955C274.731 20.9943 274.157 20.8438 273.498 20.8438C272.782 20.8438 272.157 21.0199 271.623 21.3722C271.094 21.7187 270.685 22.1733 270.396 22.7358C270.112 23.2926 269.969 23.8977 269.969 24.5511V26.0426C269.969 26.9176 270.123 27.6619 270.43 28.2756C270.742 28.8892 271.177 29.358 271.734 29.6818C272.29 30 272.941 30.1591 273.685 30.1591C274.168 30.1591 274.609 30.0909 275.006 29.9545C275.404 29.8125 275.748 29.6023 276.038 29.3239C276.327 29.0455 276.549 28.7017 276.702 28.2926L279.114 28.7273C278.921 29.4375 278.575 30.0597 278.075 30.5938C277.58 31.1222 276.958 31.5341 276.208 31.8295C275.464 32.1193 274.614 32.2642 273.66 32.2642Z" fill="#4D575F"/>
<defs>
<linearGradient id="paint0_linear_1316_9396" x1="0" y1="0" x2="49.4236" y2="1.5136" gradientUnits="userSpaceOnUse">
<stop stop-color="#4F7FFA"/>
<stop offset="1" stop-color="#5677D8"/>
</linearGradient>
</defs>
</svg>
