<svg width="16" height="16" viewBox="0 0 16 16" fill="none" xmlns="http://www.w3.org/2000/svg">
<circle cx="8" cy="8" r="8" fill="#EDF0F4"/>
<path d="M3.8724 12.361C3.86345 12.2715 3.80077 11.5946 4.44905 10.6974C5.02749 9.89687 6.43149 9.36857 7.70119 8.93519L7.81401 8.89758C8.66824 8.60568 9.87705 8.05948 10.1564 7.79443L11.0357 8.72208C10.4626 9.2647 8.81509 9.90582 8.22949 10.1064L8.11487 10.1458C7.50241 10.3553 5.87276 10.9105 5.48594 11.4477C5.12777 11.9438 5.14568 12.3557 5.14568 12.3592L3.8724 12.361Z" fill="url(#paint0_linear_164_2620)"/>
<path d="M9.83943 12.402H8.56078C8.56078 11.8826 8.38528 11.4456 8.2456 11.0928C8.2259 11.0445 8.20799 10.9979 8.19008 10.9531C8.11308 10.7544 7.79073 10.2744 7.53285 9.89119C7.38779 9.6745 7.23557 9.45065 7.112 9.25187C7.07081 9.1874 7.02783 9.12114 6.98485 9.05308C6.60162 8.4639 6.0769 7.65624 6.0769 6.44564C6.0769 5.75438 6.34732 5.06312 6.8201 4.54736L7.76207 5.41233C7.50778 5.68991 7.35556 6.07673 7.35556 6.44564C7.35556 7.27658 7.71193 7.82637 8.05756 8.35645C8.10591 8.42988 8.15247 8.50151 8.19545 8.57135C8.31007 8.75402 8.44975 8.95996 8.5966 9.17844C8.93506 9.68346 9.25562 10.1598 9.38456 10.4911C9.40068 10.5323 9.4168 10.5753 9.43471 10.6201C9.59409 11.0248 9.83943 11.6373 9.83943 12.402Z" fill="url(#paint1_linear_164_2620)"/>
<path d="M11.0358 8.72008L10.1565 7.79243C10.4967 7.47008 10.7367 7.18892 10.7367 6.48871C10.7367 5.4948 9.91649 4.88054 9.15718 4.88054C8.55188 4.88054 8.08268 5.05963 7.76033 5.41063L6.81836 4.54566C7.21413 4.11407 7.94121 3.6001 9.15897 3.6001C9.96663 3.6001 10.7098 3.92961 11.2507 4.52596C11.7378 5.065 12.0189 5.77954 12.0189 6.48691C12.0153 7.63484 11.5443 8.23834 11.0358 8.72008Z" fill="url(#paint2_linear_164_2620)"/>
<defs>
<linearGradient id="paint0_linear_164_2620" x1="3.8667" y1="7.79443" x2="3.8667" y2="12.361" gradientUnits="userSpaceOnUse">
<stop stop-color="#4D4D4D"/>
<stop offset="1" stop-color="#8F8F8F"/>
</linearGradient>
<linearGradient id="paint1_linear_164_2620" x1="6.0769" y1="4.54736" x2="6.0769" y2="12.402" gradientUnits="userSpaceOnUse">
<stop stop-color="#393939"/>
<stop offset="1" stop-color="#B8B8B8"/>
</linearGradient>
<linearGradient id="paint2_linear_164_2620" x1="6.81836" y1="3.6001" x2="6.81836" y2="8.72008" gradientUnits="userSpaceOnUse">
<stop stop-color="#FF21B3"/>
<stop offset="1" stop-color="#FF21B3"/>
</linearGradient>
</defs>
</svg>
