<svg width="16" height="16" viewBox="0 0 16 16" fill="none" xmlns="http://www.w3.org/2000/svg">
<circle cx="8" cy="8" r="8" fill="black"/>
<path fill-rule="evenodd" clip-rule="evenodd" d="M8.43832 6.54971C8.45084 6.8014 8.35467 7.04061 8.256 7.26583C8.14561 7.53024 8.0347 7.79439 7.92381 8.05849L7.92377 8.05859L7.92371 8.05873C7.76697 8.43203 7.61027 8.80524 7.45511 9.17897C7.43841 9.21807 7.4221 9.25747 7.40575 9.29693L7.40571 9.29703C7.32794 9.48483 7.24962 9.67394 7.12754 9.83816C7.02236 9.98597 6.8761 10.0998 6.70681 10.1648C6.49341 10.2313 6.26742 10.2475 6.04666 10.2122C5.73838 10.1738 5.43667 10.0993 5.13514 10.0249L5.13508 10.0249C5.0643 10.0074 4.99354 9.98998 4.9227 9.97299C4.68213 9.91291 4.44077 9.85373 4.19937 9.79454L4.19936 9.79454C3.93314 9.72926 3.66686 9.66398 3.40155 9.59745C3.06547 9.51705 2.72638 9.43066 2.41384 9.27785C2.27898 9.21265 2.16438 9.11221 2.08226 8.98721C2.01883 8.88404 1.99087 8.76307 2.00262 8.64263C2.02917 8.4214 2.11131 8.21116 2.20046 8.00841L3.01689 6.05333C3.03244 6.01753 3.04754 5.98146 3.06265 5.94535L3.06265 5.94535C3.1108 5.83031 3.15908 5.71494 3.22274 5.60738C3.2943 5.47666 3.38938 5.3602 3.50323 5.2638C3.63747 5.16193 3.79524 5.09651 3.96203 5.07304C4.06379 5.06392 4.16556 5.06649 4.26732 5.06906L4.33017 5.07054C4.70966 5.12646 5.08547 5.20484 5.45563 5.30525C5.71744 5.36824 5.97888 5.43288 6.24025 5.49751C6.4969 5.56098 6.75349 5.62442 7.01033 5.68628C7.24875 5.74471 7.48616 5.80463 7.71907 5.88403L7.72174 5.88501C7.87666 5.94163 8.0349 5.99946 8.17086 6.09777C8.32613 6.19815 8.4253 6.36544 8.43832 6.54971ZM14 7.39817V7.43013C13.5783 7.69326 13.1547 7.95455 12.7309 8.21601L12.7306 8.21616L12.7304 8.21631C12.4562 8.38547 12.1819 8.55469 11.9079 8.72453C11.8946 8.73407 11.8842 8.74702 11.8778 8.76198C11.9205 8.77343 11.9636 8.78422 12.0067 8.79503C12.1517 8.83138 12.2975 8.86792 12.4338 8.93028C12.5971 9.00269 12.7643 9.09707 12.8565 9.25537C12.9447 9.41618 12.9667 9.60494 12.9176 9.78123C12.8953 9.89206 12.8524 9.99726 12.8096 10.1024L12.7854 10.1623L12.6025 10.5987L12.6023 10.5992C12.4537 10.9536 12.3051 11.3079 12.1578 11.6639C12.1477 11.6888 12.1342 11.7121 12.1177 11.7333C12.069 11.7323 12.0217 11.7193 11.9744 11.7064C11.9551 11.7011 11.9358 11.6959 11.9164 11.6914C11.7811 11.658 11.6455 11.625 11.5098 11.5919L11.5095 11.5918C11.3057 11.5421 11.1018 11.4923 10.8986 11.4417C10.8525 11.4287 10.8059 11.418 10.7593 11.4074C10.6945 11.3925 10.6297 11.3777 10.5665 11.3568C10.5686 11.3089 10.5884 11.2659 10.608 11.2233C10.6164 11.2051 10.6247 11.1869 10.6316 11.1685L11.0964 10.0594C11.1315 9.98248 11.152 9.8866 11.102 9.81169C11.0393 9.70482 10.9136 9.66437 10.8024 9.63391C10.5423 9.56717 10.281 9.50367 10.0198 9.44019L10.0197 9.44016C9.87046 9.4039 9.72125 9.36764 9.57229 9.33078C9.55546 9.32719 9.53874 9.32245 9.52201 9.31771C9.48051 9.30593 9.43889 9.29413 9.39499 9.29982C9.37105 9.34159 9.35373 9.38687 9.3363 9.43246L9.33628 9.43251C9.32745 9.45559 9.3186 9.47875 9.30884 9.50157C9.21592 9.7188 9.125 9.93673 9.03409 10.1546L9.03405 10.1547L9.03403 10.1548C8.95443 10.3456 8.87484 10.5363 8.79394 10.7266C8.78629 10.7439 8.77958 10.7619 8.77286 10.7798L8.77286 10.7798C8.75757 10.8207 8.74225 10.8617 8.7158 10.8963C8.66761 10.8963 8.62142 10.8831 8.57529 10.8699C8.55621 10.8644 8.53715 10.8589 8.51796 10.8544C8.38764 10.8224 8.25732 10.7902 8.12692 10.7579L8.12686 10.7579C7.90696 10.7035 7.68684 10.649 7.46613 10.5957C7.42898 10.5858 7.39118 10.5772 7.35328 10.5686C7.29054 10.5544 7.2275 10.5402 7.16661 10.5193C7.16781 10.4917 7.17391 10.4644 7.18464 10.4389L8.95422 6.20913C8.96034 6.19496 8.96999 6.18258 8.98227 6.17318C9.02272 6.1758 9.06188 6.18747 9.10102 6.19913L9.10103 6.19913C9.12149 6.20523 9.14195 6.21132 9.16258 6.21612C9.33345 6.25678 9.50448 6.29925 9.67559 6.34173L9.67562 6.34174C9.80293 6.37334 9.93029 6.40496 10.0576 6.43585C10.1165 6.45106 10.176 6.46496 10.2356 6.47889C10.3325 6.50154 10.4297 6.52425 10.525 6.55271C10.5322 6.57903 10.5213 6.60577 10.511 6.63104L10.5079 6.6386C10.4372 6.799 10.37 6.96078 10.3028 7.12231L10.3028 7.12236C10.2558 7.23541 10.2089 7.34834 10.1608 7.46059L9.79969 8.32552C9.78637 8.35879 9.77171 8.39164 9.75702 8.42453C9.72697 8.49184 9.69682 8.55935 9.67798 8.63115C9.72954 8.61335 9.77373 8.58333 9.81883 8.55269L9.81883 8.55269L9.82023 8.55174L12.1773 7.07856C12.1893 7.07104 12.201 7.06282 12.2127 7.0546C12.243 7.03336 12.2732 7.01216 12.3086 7.00315C12.3617 6.9991 12.4128 7.01298 12.4634 7.02675C12.4814 7.03165 12.4994 7.03654 12.5174 7.04061C12.6527 7.06955 12.7867 7.10386 12.9205 7.13812L12.9205 7.13813C13.0245 7.16476 13.1284 7.19137 13.2327 7.21539C13.3527 7.24207 13.4717 7.27166 13.5903 7.30115C13.727 7.33515 13.8632 7.36902 14 7.39817ZM6.52098 6.82637C6.58259 6.85833 6.63518 6.92125 6.62517 6.99466L6.62567 6.99516C6.61458 7.08281 6.57751 7.16296 6.54094 7.24204C6.53125 7.26299 6.5216 7.28386 6.51247 7.30478L5.95901 8.62865C5.91743 8.73002 5.85983 8.84538 5.74714 8.88184C5.61606 8.91012 5.48164 8.87888 5.3532 8.84903C5.35011 8.84831 5.34702 8.84759 5.34394 8.84688L4.21447 8.57022L4.21083 8.56926C4.1173 8.5446 4.02099 8.51919 3.93248 8.47384C3.87288 8.44487 3.82429 8.38395 3.82429 8.31404C3.8293 8.25311 3.85184 8.19618 3.87438 8.13925C3.99101 7.86491 4.10572 7.58978 4.2205 7.31447C4.3088 7.10267 4.39715 6.89077 4.48644 6.67905C4.52802 6.57069 4.58962 6.44684 4.71234 6.41188C4.81836 6.39492 4.92684 6.40175 5.02989 6.43186C5.39352 6.51975 5.75515 6.60864 6.11678 6.69853C6.14359 6.70541 6.17064 6.7119 6.19777 6.71841C6.30851 6.74497 6.4204 6.77182 6.52098 6.82637Z" fill="white"/>
</svg>
