<svg width="16" height="16" viewBox="0 0 16 16" fill="none" xmlns="http://www.w3.org/2000/svg">
<circle cx="8" cy="8" r="8" fill="#EDF0F4"/>
<path d="M6.01638 9.26737C6.01302 9.31107 5.98292 9.34811 5.94084 9.36036C5.89875 9.3726 5.85348 9.35748 5.8272 9.3224L4.31381 7.91288C4.2752 7.88797 4.25542 7.84223 4.26371 7.79704C4.27199 7.75185 4.30671 7.7161 4.35164 7.70651L6.4704 6.86176C6.56877 6.82255 6.62793 6.87414 6.60179 6.97733L6.01638 9.26737Z" fill="#404A72"/>
<path d="M4.76434 10.6068C4.68385 10.6756 4.60268 10.6474 4.5841 10.5429L4.17136 8.25213C4.1521 8.14757 4.20025 8.12143 4.27798 8.19366L5.71571 9.53508C5.75276 9.56805 5.77355 9.61557 5.77262 9.66517C5.7717 9.71476 5.74915 9.76147 5.7109 9.79304L4.76434 10.6068Z" fill="#556195"/>
<path d="M6.49795 6.40587C6.53157 6.43786 6.54548 6.48541 6.53439 6.53047C6.5233 6.57554 6.48892 6.6112 6.44429 6.62394L4.33861 7.46662C4.23955 7.50583 4.18933 7.45699 4.22648 7.35724L5.09187 5.03143C5.09931 4.98814 5.13302 4.95411 5.17624 4.94627C5.21947 4.93842 5.26298 4.95843 5.28517 4.99635L6.49795 6.40587Z" fill="#556195"/>
<path d="M4.29113 10.2174C4.31039 10.3219 4.27806 10.3343 4.22234 10.2456L3.40236 8.98326C3.3449 8.88419 3.34917 8.76098 3.41336 8.66613L3.77795 8.17703C3.84193 8.09173 3.90934 8.10824 3.92792 8.21211L4.29113 10.2174Z" fill="#556195"/>
<path d="M4.03379 7.21397C3.99665 7.31372 3.93886 7.31303 3.90516 7.21397L3.62655 6.37404C3.59592 6.26257 3.62714 6.14323 3.70841 6.06104L4.70382 5.15919C4.78224 5.0904 4.81663 5.11104 4.77949 5.21078L4.03379 7.21397Z" fill="#556195"/>
<path d="M3.77105 7.53747C3.80222 7.65219 3.78242 7.77478 3.7167 7.87385L3.43122 8.25839C3.36724 8.34369 3.32459 8.32718 3.33491 8.22125L3.47112 6.89152C3.48144 6.78558 3.51858 6.78146 3.5516 6.88258L3.77105 7.53747Z" fill="#556195"/>
<path d="M4.89446 4.54303C4.93023 4.58362 4.89446 4.6758 4.81535 4.74941L4.36546 5.15321C4.28635 5.222 4.27397 5.21306 4.33725 5.12776L4.70941 4.62352C4.7782 4.53822 4.85937 4.50314 4.89446 4.54303Z" fill="#556195"/>
<path d="M7.71958 11.62C7.70262 11.6611 7.66324 11.6885 7.61883 11.6902C7.57441 11.6918 7.53313 11.6673 7.51321 11.6276L6.34377 9.92435C6.31301 9.89314 6.30481 9.84615 6.32317 9.80636C6.34153 9.76658 6.38261 9.74234 6.42632 9.74549L8.77827 9.50266C8.88352 9.49166 8.92617 9.5577 8.87251 9.64988L7.71958 11.62Z" fill="#556195"/>
<path d="M7.22913 11.6215C7.28967 11.7096 7.25665 11.7529 7.15553 11.7192L4.95422 10.9694C4.85379 10.935 4.83728 10.8504 4.91776 10.7809L5.85951 9.96781C5.89634 9.93459 5.94586 9.91912 5.99505 9.92547C6.04425 9.93182 6.08821 9.95935 6.11541 10.0008L7.22913 11.6215Z" fill="#556195"/>
<path d="M8.82579 9.1073C8.89458 9.18778 8.865 9.26208 8.757 9.27308L6.36996 9.51935C6.32507 9.52876 6.27862 9.513 6.24871 9.47823C6.2188 9.44346 6.21017 9.39517 6.22618 9.35219L6.82329 7.02844C6.85012 6.92594 6.92854 6.90737 6.99733 6.98785L8.82579 9.1073Z" fill="#6ECCE0"/>
<path d="M10.5407 11.0979C10.5753 11.1254 10.5889 11.1716 10.5747 11.2134C10.5605 11.2552 10.5216 11.2836 10.4774 11.2844L8.04911 11.7948C7.94523 11.8168 7.90396 11.7597 7.95762 11.6675L9.10298 9.70906C9.12253 9.66719 9.16283 9.63883 9.20884 9.63458C9.25486 9.63034 9.29967 9.65083 9.32655 9.68842L10.5407 11.0979Z" fill="#556195"/>
<path d="M6.63552 12.4049C6.53217 12.454 6.40988 12.4398 6.32046 12.3684L5.19092 11.373C5.11181 11.3043 5.12901 11.2733 5.22944 11.3043L7.15558 11.9598C7.2567 11.9942 7.26221 12.0637 7.16865 12.1139L6.63552 12.4049Z" fill="#556195"/>
<path d="M9.25362 12.4999C9.16041 12.568 9.0379 12.5811 8.93237 12.5343L8.14885 12.1346C8.05391 12.0858 8.06148 12.0287 8.16536 12.0067L10.2573 11.5664C10.3612 11.5444 10.379 11.5815 10.2972 11.649L9.25362 12.4999Z" fill="#556195"/>
<path d="M7.06274 12.5516C6.95611 12.5467 6.94648 12.5013 7.04004 12.4511L7.46104 12.2227C7.56962 12.1714 7.6952 12.1699 7.80499 12.2186L8.41998 12.5316C8.51491 12.5798 8.50528 12.6148 8.39934 12.61L7.06274 12.5516Z" fill="#556195"/>
<path d="M10.9315 11.5521C10.9665 11.5926 10.9191 11.6676 10.8255 11.7178L10.2711 12.0136C10.1768 12.0639 10.1672 12.0494 10.2497 11.982L10.7175 11.5995C10.8001 11.5321 10.8964 11.5108 10.9315 11.5521Z" fill="#556195"/>
<path d="M9.53019 9.08246C9.43113 9.12167 9.37197 9.07008 9.3988 8.96689L9.98696 6.67754C9.99047 6.63378 10.0206 6.59673 10.0627 6.58437C10.1048 6.57201 10.1502 6.5869 10.1768 6.62182L11.6902 8.03203C11.7295 8.05654 11.7498 8.10254 11.7414 8.14807C11.7331 8.1936 11.6978 8.22941 11.6524 8.2384L9.53019 9.08246Z" fill="#404A72"/>
<path d="M11.8305 7.69208C11.8491 7.79664 11.8016 7.82347 11.7239 7.75055L10.2855 6.40913C10.2485 6.37606 10.2279 6.32848 10.2289 6.27888C10.23 6.22929 10.2527 6.18264 10.291 6.15117L11.2355 5.33737C11.316 5.26858 11.3978 5.29679 11.4164 5.40135L11.8305 7.69208Z" fill="#556195"/>
<path d="M10.9087 10.9136C10.9007 10.9567 10.8668 10.9903 10.8236 10.998C10.7805 11.0056 10.7371 10.9857 10.7148 10.948L9.50128 9.53851C9.46654 9.50674 9.45181 9.45859 9.46282 9.41282C9.47384 9.36704 9.50886 9.33087 9.55425 9.31838L11.662 8.4757C11.7604 8.43649 11.8113 8.48533 11.7741 8.58507L10.9087 10.9136Z" fill="#556195"/>
<path d="M12.5969 6.9609C12.6542 7.05992 12.6502 7.18294 12.5866 7.27802L12.2213 7.76713C12.158 7.85243 12.0906 7.83592 12.0713 7.73204L11.7088 5.72679C11.6902 5.62223 11.7219 5.60985 11.7776 5.69859L12.5969 6.9609Z" fill="#556195"/>
<path d="M12.374 9.57025C12.4046 9.68171 12.3734 9.80105 12.2921 9.88325L11.2967 10.7851C11.2176 10.8539 11.1839 10.8332 11.221 10.7342L11.9667 8.73031C12.0032 8.63057 12.061 8.63126 12.0947 8.73031L12.374 9.57025Z" fill="#556195"/>
<path d="M12.5281 9.05277C12.5171 9.1587 12.4806 9.16214 12.4469 9.06171L12.2288 8.40682C12.1972 8.29167 12.2171 8.16849 12.2832 8.06906L12.5693 7.6859C12.6326 7.6006 12.676 7.6171 12.665 7.72304L12.5281 9.05277Z" fill="#556195"/>
<path d="M11.2858 11.3209C11.2218 11.4069 11.1413 11.4427 11.1056 11.4014C11.0698 11.3601 11.1056 11.2687 11.1847 11.1951L11.6325 10.7892C11.7109 10.7204 11.724 10.7293 11.6607 10.8146L11.2858 11.3209Z" fill="#556195"/>
<path d="M9.6581 6.01978C9.68885 6.05099 9.69706 6.09799 9.6787 6.13777C9.66033 6.17755 9.61925 6.2018 9.57555 6.19864L7.22359 6.44147C7.11765 6.45248 7.075 6.38644 7.12866 6.29495L8.2809 4.32409C8.29787 4.28301 8.33724 4.25561 8.38166 4.25398C8.42607 4.25235 8.46735 4.2768 8.48728 4.31653L9.6581 6.01978Z" fill="#404A72"/>
<path d="M10.1438 5.97664C10.107 6.00986 10.0575 6.02532 10.0083 6.01898C9.95907 6.01263 9.91511 5.9851 9.88791 5.94362L8.768 4.32291C8.70815 4.23485 8.74117 4.19152 8.84161 4.22591L11.0429 4.97435C11.1433 5.00875 11.1599 5.09336 11.0794 5.16284L10.1438 5.97664Z" fill="#556195"/>
<path d="M9.17391 8.91587C9.14777 9.01905 9.06935 9.03694 8.99987 8.95645L7.17485 6.8377C7.10606 6.75721 7.13495 6.68223 7.24364 6.67123L9.62999 6.42495C9.67499 6.41525 9.72169 6.43087 9.75179 6.4657C9.78189 6.50052 9.79058 6.549 9.77445 6.59212L9.17391 8.91587Z" fill="#556195"/>
<path d="M6.89688 6.23523C6.87764 6.27745 6.83727 6.30612 6.79108 6.31039C6.74488 6.31465 6.69994 6.29385 6.67331 6.25587L5.45984 4.84703C5.42535 4.81965 5.41172 4.7736 5.42573 4.73186C5.43975 4.69012 5.47842 4.66163 5.52244 4.66061L7.95075 4.1495C8.05531 4.12748 8.09659 4.18458 8.04293 4.27676L6.89688 6.23523Z" fill="#556195"/>
<path d="M8.84093 3.98155C8.7405 3.94716 8.735 3.87837 8.82855 3.82746L9.36649 3.53992C9.46985 3.49084 9.59214 3.50499 9.68156 3.57638L10.8083 4.57178C10.8881 4.64057 10.8709 4.67153 10.7705 4.64057L8.84093 3.98155Z" fill="#556195"/>
<path d="M5.74605 4.37794C5.64218 4.39996 5.62429 4.36556 5.70684 4.29677L6.74627 3.44445C6.83975 3.37635 6.96245 3.36324 7.06821 3.41006L7.85518 3.81042C7.95011 3.85857 7.94254 3.91567 7.83867 3.93768L5.74605 4.37794Z" fill="#556195"/>
<path d="M8.53961 3.72156C8.43102 3.77292 8.30545 3.77443 8.19566 3.72569L7.57654 3.41269C7.48711 3.36454 7.49606 3.32945 7.60268 3.33358L8.93791 3.39549C9.04316 3.40237 9.05417 3.44571 8.96061 3.49593L8.53961 3.72156Z" fill="#556195"/>
<path d="M5.28312 4.34473C5.20057 4.41352 5.10426 4.43347 5.06918 4.39288C5.03409 4.35229 5.08156 4.27662 5.17511 4.2271L5.72957 3.93061C5.82312 3.88039 5.83275 3.89484 5.75089 3.96225L5.28312 4.34473Z" fill="#556195"/>
<path d="M4.57173 11.0781C4.61231 11.0423 4.70449 11.0781 4.7781 11.1565L5.18396 11.6044C5.25275 11.6835 5.24381 11.6959 5.15851 11.6326L4.65359 11.2577C4.56553 11.1944 4.52976 11.1132 4.57173 11.0781Z" fill="#556195"/>
<path d="M11.5795 5.04089C11.6208 5.00512 11.6958 5.05327 11.7453 5.14683L12.0418 5.70128C12.0913 5.79553 12.0776 5.80447 12.0101 5.72261L11.6277 5.25483C11.5602 5.17228 11.5389 5.07597 11.5795 5.04089Z" fill="#556195"/>
<path d="M11.349 4.68677C11.4343 4.75006 11.4708 4.83123 11.4295 4.86632C11.3882 4.9014 11.2967 4.86632 11.2231 4.78789L10.8173 4.34007C10.7485 4.26096 10.7574 4.24857 10.8427 4.31186L11.349 4.68677Z" fill="#556195"/>
<path d="M4.37293 10.6894C4.44172 10.772 4.46167 10.8683 4.42039 10.9034C4.37912 10.9384 4.30482 10.891 4.25461 10.7974L3.95881 10.243C3.90859 10.1487 3.92303 10.1398 3.99045 10.2216L4.37293 10.6894Z" fill="#556195"/>
</svg>
