<svg width="24" height="24" viewBox="0 0 24 24" fill="none" xmlns="http://www.w3.org/2000/svg">
<path d="M21.6975 14.4191L21.6845 14.4713C20.3269 19.797 14.9192 23.0317 9.57897 21.7002C4.2241 20.3648 0.96386 14.9388 2.29993 9.58241L2.30005 9.58192C3.63497 4.22439 9.06065 0.964281 14.416 2.29966L14.4162 2.29969C19.773 3.63512 23.0332 9.06173 21.6975 14.4191Z" fill="url(#paint0_linear_164_2787)" stroke="#FFD9EC" stroke-width="4"/>
<path d="M10.1061 7.41171C9.94363 7.3885 9.93589 7.38077 10.0133 7.37303C10.1602 7.34982 10.5006 7.38077 10.7404 7.43492C11.2974 7.56643 11.8003 7.90681 12.334 8.50248L12.4733 8.66493L12.6744 8.63399C13.5331 8.49474 14.415 8.60305 15.1499 8.94343C15.3511 9.03626 15.6682 9.22192 15.7069 9.26834C15.7224 9.28381 15.7456 9.38438 15.7611 9.48494C15.8152 9.84853 15.792 10.1193 15.676 10.3282C15.6141 10.4442 15.6141 10.4751 15.6528 10.5757C15.6837 10.6531 15.7765 10.7072 15.8616 10.7072C16.0473 10.7072 16.2407 10.4133 16.3335 10.0033L16.3722 9.8408L16.4418 9.91816C16.8364 10.3591 17.1458 10.9702 17.1922 11.4035L17.2077 11.5195L17.1381 11.4189C17.022 11.241 16.9137 11.125 16.7667 11.0244C16.5037 10.8465 16.2252 10.7923 15.4903 10.7536C14.825 10.715 14.4459 10.6608 14.0746 10.537C13.4403 10.3282 13.1154 10.0574 12.365 9.05947C12.0323 8.61852 11.8235 8.3787 11.6146 8.17757C11.1582 7.73662 10.7018 7.50454 10.1061 7.41171Z" fill="#FF007A"/>
<path d="M15.8694 8.39397C15.8849 8.1 15.9235 7.90661 16.0086 7.72868C16.0396 7.65906 16.0705 7.59717 16.0783 7.59717C16.086 7.59717 16.0705 7.65132 16.0473 7.71321C15.9854 7.8834 15.9777 8.12321 16.0164 8.39397C16.0705 8.74209 16.0937 8.7885 16.4651 9.16757C16.6352 9.34549 16.8364 9.56983 16.9137 9.66267L17.0453 9.83286L16.9137 9.70908C16.7513 9.55436 16.38 9.2604 16.2949 9.22172C16.2407 9.19077 16.233 9.19077 16.1943 9.22945C16.1634 9.2604 16.1556 9.30681 16.1556 9.53115C16.1479 9.87927 16.1015 10.0959 15.9854 10.3202C15.9235 10.4363 15.9158 10.4131 15.97 10.2815C16.0086 10.181 16.0164 10.1346 16.0164 9.80191C16.0164 9.12889 15.939 8.96643 15.4671 8.69567C15.3511 8.62605 15.1499 8.52548 15.0339 8.47133C14.9101 8.41718 14.8173 8.37076 14.825 8.37076C14.8405 8.35529 15.2969 8.4868 15.4749 8.56416C15.7456 8.67246 15.792 8.6802 15.823 8.67246C15.8462 8.64926 15.8617 8.58737 15.8694 8.39397Z" fill="#FF007A"/>
<path d="M10.4232 9.54688C10.0983 9.09819 9.88947 8.40195 9.93588 7.88365L9.95135 7.72119L10.0287 7.73666C10.168 7.75987 10.4078 7.8527 10.5238 7.92233C10.8333 8.10799 10.9725 8.36328 11.104 8.99762C11.1427 9.18329 11.1968 9.39989 11.22 9.46952C11.2587 9.58555 11.4057 9.85631 11.5295 10.0265C11.6146 10.1503 11.5604 10.2122 11.367 10.1967C11.0731 10.1658 10.6785 9.89499 10.4232 9.54688Z" fill="#FF007A"/>
<path d="M15.4748 12.9118C13.9431 12.293 13.4016 11.7592 13.4016 10.8541C13.4016 10.7226 13.4093 10.6143 13.4093 10.6143C13.4171 10.6143 13.4712 10.6607 13.5409 10.7148C13.8503 10.9624 14.1984 11.0707 15.1654 11.2099C15.7301 11.295 16.055 11.3569 16.349 11.4575C17.2851 11.7669 17.8653 12.4013 18.0045 13.26C18.0432 13.5075 18.02 13.9794 17.9581 14.2269C17.9039 14.4203 17.7492 14.7762 17.7105 14.7839C17.7028 14.7839 17.6873 14.7453 17.6873 14.6834C17.6719 14.3585 17.5094 14.049 17.2386 13.8092C16.9137 13.5307 16.496 13.3218 15.4748 12.9118Z" fill="#FF007A"/>
<path d="M14.3918 13.167C14.3763 13.051 14.3376 12.904 14.3144 12.8421L14.2757 12.7261L14.3453 12.8112C14.4459 12.9272 14.5233 13.0665 14.5929 13.2599C14.647 13.4068 14.647 13.4533 14.647 13.6931C14.647 13.9251 14.6393 13.9793 14.5929 14.1108C14.5155 14.3197 14.4227 14.4667 14.268 14.6291C13.9895 14.9153 13.6259 15.0701 13.1076 15.1397C13.0148 15.1474 12.7517 15.1706 12.5197 15.1861C11.9395 15.217 11.5527 15.2789 11.2046 15.4027C11.1581 15.4182 11.1117 15.4337 11.104 15.4259C11.0885 15.4104 11.3283 15.2712 11.5217 15.1784C11.7925 15.0469 12.071 14.9772 12.6821 14.8689C12.9838 14.8225 13.2933 14.7606 13.3706 14.7297C14.1365 14.4899 14.5155 13.8942 14.3918 13.167Z" fill="#FF007A"/>
<path d="M15.0958 14.4126C14.8946 13.9717 14.8482 13.5539 14.9565 13.1594C14.972 13.1207 14.9875 13.082 15.0029 13.082C15.0184 13.082 15.0648 13.1052 15.1112 13.1362C15.2041 13.1981 15.3975 13.3064 15.8926 13.5771C16.5192 13.9175 16.875 14.1805 17.1226 14.4822C17.3392 14.7453 17.4707 15.047 17.5326 15.4183C17.5713 15.6272 17.5481 16.13 17.4939 16.3389C17.3237 16.9964 16.9369 17.5225 16.3722 17.8242C16.2871 17.8706 16.2175 17.9015 16.2097 17.9015C16.202 17.9015 16.2329 17.8242 16.2794 17.7313C16.465 17.3368 16.4882 16.9577 16.349 16.5323C16.2639 16.2692 16.086 15.9521 15.7301 15.4183C15.3046 14.7994 15.2041 14.637 15.0958 14.4126Z" fill="#FF007A"/>
<path d="M9.3325 16.7796C9.90496 16.2999 10.6089 15.9595 11.2587 15.8512C11.5372 15.8048 12.0014 15.8203 12.2567 15.8899C12.6667 15.9982 13.038 16.2303 13.2314 16.5165C13.4171 16.795 13.5022 17.0348 13.5873 17.5686C13.6182 17.7775 13.6569 17.9941 13.6646 18.0405C13.7265 18.319 13.8503 18.5356 14.005 18.6517C14.2448 18.8296 14.6626 18.8373 15.0726 18.6826C15.1422 18.6594 15.2041 18.6362 15.2041 18.6439C15.2196 18.6594 15.0107 18.7986 14.8714 18.8683C14.678 18.9688 14.5233 18.9998 14.3144 18.9998C13.9431 18.9998 13.6259 18.8064 13.3707 18.4196C13.3165 18.3422 13.2082 18.1179 13.1154 17.909C12.8446 17.2824 12.7054 17.0967 12.3882 16.8879C12.1097 16.7099 11.7538 16.6712 11.4831 16.8028C11.1272 16.973 11.0344 17.4294 11.282 17.7079C11.3825 17.8239 11.5682 17.9167 11.7229 17.9399C12.0091 17.9786 12.2567 17.7543 12.2567 17.4681C12.2567 17.2824 12.1871 17.1741 12.0014 17.089C11.7539 16.9807 11.4831 17.1045 11.4908 17.3443C11.4908 17.4448 11.5372 17.5067 11.6378 17.5531C11.6997 17.5841 11.6997 17.5841 11.6533 17.5764C11.4289 17.5299 11.3748 17.2514 11.5527 17.0735C11.7693 16.8569 12.2257 16.9497 12.3805 17.2514C12.4423 17.3752 12.4501 17.6228 12.3959 17.7775C12.2644 18.1179 11.8931 18.2958 11.514 18.1952C11.2587 18.1256 11.1504 18.056 10.841 17.7388C10.2995 17.1818 10.0906 17.0735 9.31703 16.9575L9.17004 16.9343L9.3325 16.7796Z" fill="#FF007A"/>
<path fill-rule="evenodd" clip-rule="evenodd" d="M5.26337 4.33265C7.06584 6.52192 9.84305 9.92574 9.98229 10.1114C10.0983 10.2661 10.0519 10.4131 9.85852 10.5214C9.75022 10.5833 9.52587 10.6452 9.41757 10.6452C9.29379 10.6452 9.14681 10.5833 9.04624 10.4827C8.97662 10.4131 8.67492 9.97215 7.99416 8.91233C7.47585 8.10005 7.0349 7.42702 7.02716 7.41929C6.99622 7.40382 6.99622 7.40382 7.94 9.09025C8.53567 10.1501 8.72907 10.5291 8.72907 10.5756C8.72907 10.6761 8.69813 10.7303 8.57435 10.8695C8.36548 11.1016 8.27265 11.3646 8.20303 11.9139C8.12567 12.525 7.9168 12.9582 7.32113 13.6931C6.97301 14.1264 6.91886 14.2037 6.83376 14.3816C6.72546 14.5982 6.69452 14.722 6.67904 15.0005C6.66357 15.2945 6.69452 15.4801 6.77961 15.7586C6.85697 16.0062 6.94207 16.1686 7.15094 16.4858C7.32886 16.7643 7.43717 16.9732 7.43717 17.0505C7.43717 17.1124 7.45264 17.1124 7.73113 17.0505C8.39642 16.8958 8.94568 16.6328 9.24738 16.3079C9.43304 16.1068 9.47946 15.9985 9.47946 15.72C9.47946 15.542 9.47172 15.5034 9.42531 15.3951C9.34795 15.2249 9.20096 15.0856 8.88379 14.869C8.46605 14.5828 8.28812 14.3507 8.24171 14.0413C8.20303 13.7782 8.24944 13.6003 8.48152 13.1129C8.72133 12.6101 8.78322 12.4012 8.8219 11.8907C8.84511 11.5658 8.88379 11.4342 8.97662 11.3337C9.07719 11.2254 9.16228 11.1867 9.4021 11.1558C9.79663 11.1016 10.0519 11.001 10.2531 10.8076C10.431 10.6452 10.5083 10.4827 10.5161 10.2429L10.5238 10.065L10.4232 9.95668C10.0597 9.53894 5.02355 4 5.00034 4C4.99261 4 5.11638 4.14698 5.26337 4.33265ZM7.6383 15.3332C7.7234 15.1862 7.67698 15.0005 7.53773 14.9077C7.40622 14.8226 7.20509 14.8613 7.20509 14.9773C7.20509 15.0083 7.22056 15.0392 7.26698 15.0547C7.3366 15.0933 7.34433 15.132 7.29018 15.2171C7.23603 15.3022 7.23603 15.3796 7.30566 15.4337C7.41396 15.5188 7.56094 15.4724 7.6383 15.3332Z" fill="#FF007A"/>
<path fill-rule="evenodd" clip-rule="evenodd" d="M10.7714 11.264C10.5857 11.3182 10.4078 11.5193 10.3537 11.7204C10.3227 11.8442 10.3382 12.0686 10.3923 12.1382C10.4774 12.2465 10.5548 12.2774 10.7714 12.2774C11.1969 12.2774 11.5605 12.0918 11.5991 11.8674C11.6378 11.6818 11.4754 11.4265 11.251 11.3104C11.135 11.2486 10.8952 11.2253 10.7714 11.264ZM11.2665 11.6508C11.3284 11.558 11.3052 11.4574 11.1891 11.3878C10.9803 11.2563 10.6631 11.3646 10.6631 11.5657C10.6631 11.6663 10.8256 11.7746 10.9803 11.7746C11.0808 11.7746 11.2201 11.7127 11.2665 11.6508Z" fill="#FF007A"/>
<defs>
<linearGradient id="paint0_linear_164_2787" x1="0" y1="0" x2="0" y2="24" gradientUnits="userSpaceOnUse">
<stop stop-color="#FEF3F9"/>
<stop offset="1" stop-color="#FDE5F2"/>
</linearGradient>
</defs>
</svg>
